<?xml version="1.0" standalone="no"?>
<!DOCTYPE svg PUBLIC "-//W3C//DTD SVG 20010904//EN"
 "http://www.w3.org/TR/2001/REC-SVG-20010904/DTD/svg10.dtd">
<svg version="1.0" xmlns="http://www.w3.org/2000/svg"
 width="1536.000000pt" height="1024.000000pt" viewBox="0 0 1536.000000 1024.000000"
 preserveAspectRatio="xMidYMid meet">

<g transform="translate(0.000000,1024.000000) scale(0.100000,-0.100000)"
fill="#000000" stroke="none">
<path d="M7920 9917 c-41 -45 -155 -159 -252 -254 l-176 -173 -6 -258 -5 -258
47 -27 c26 -14 61 -36 78 -47 l30 -20 -4 28 c-3 25 6 37 70 92 40 35 97 86
126 114 l52 50 0 -71 0 -71 -92 -82 c-69 -61 -97 -80 -113 -76 -15 4 -13 0 10
-18 l30 -24 -3 -1890 -2 -1890 -30 -11 c-17 -5 -30 -7 -30 -4 0 4 -7 -2 -15
-13 -13 -17 -15 140 -17 1321 -1 737 -4 1214 -5 1060 -7 -763 -23 -1633 -32
-1660 -9 -28 -9 -27 -10 18 -1 30 -5 46 -11 42 -6 -3 -18 1 -27 10 -9 10 -25
14 -38 11 -12 -3 -30 1 -41 8 -10 7 -28 11 -39 9 -11 -2 -25 -5 -32 -5 -7 -1
-11 -4 -10 -7 4 -17 -16 -52 -28 -47 -8 3 -19 -2 -25 -9 -7 -8 -16 -12 -22 -9
-14 9 -38 -15 -31 -32 3 -8 -2 -25 -10 -37 -8 -13 -17 -37 -20 -53 -2 -16 -5
140 -7 346 -2 206 -6 564 -9 795 -5 311 -8 111 -9 -767 l-2 -1188 -25 0 c-14
0 -25 -4 -25 -10 0 -5 -5 -10 -12 -10 -8 0 -10 520 -5 2165 4 1191 4 2165 1
2165 -4 0 -12 -6 -18 -14 -11 -13 -135 -122 -345 -300 l-105 -88 3 -103 c1
-57 -1 -125 -5 -151 -6 -45 -8 -47 -17 -24 l-11 25 -3 -30 c-1 -16 -4 -159 -5
-316 l-3 -287 49 -27 49 -28 -6 -1221 c-4 -672 -7 -1381 -7 -1577 l0 -357 -32
-6 c-18 -3 -45 -13 -60 -20 l-28 -15 0 62 c-1 34 -1 616 -2 1292 -1 1169 -1
1199 -9 610 -10 -725 -23 -1333 -27 -1255 -3 72 -9 90 -23 70 -8 -13 -12 -12
-25 5 -11 14 -18 16 -21 8 -6 -16 -30 -17 -35 -2 -2 5 -16 12 -32 13 -16 2
-35 11 -42 20 -8 12 -14 14 -19 6 -8 -14 -45 16 -45 36 0 7 -5 16 -12 20 -7 5
-8 3 -3 -5 4 -8 -3 -6 -18 3 -34 23 -50 17 -64 -24 -10 -30 -12 -9 -14 140 -1
96 -5 342 -8 545 -5 278 -8 115 -9 -652 -1 -668 -5 -1024 -12 -1028 -5 -3 -10
-1 -10 4 0 6 -4 11 -10 11 -5 0 -10 -7 -10 -15 0 -8 -4 -15 -10 -15 -7 0 -10
615 -10 1826 0 1740 -1 1825 -17 1806 -18 -19 -157 -125 -365 -276 l-108 -78
0 -377 0 -377 65 -32 64 -32 -4 -202 c-2 -112 -4 -690 -5 -1284 l0 -1082 -44
-11 c-24 -6 -51 -13 -60 -17 -15 -6 -16 66 -16 961 1 532 -2 970 -5 973 -3 3
-5 -136 -5 -310 0 -496 -12 -1160 -21 -1146 -5 7 -9 36 -9 63 0 36 -3 46 -10
35 -9 -13 -14 -7 -11 13 0 4 -4 7 -11 7 -6 0 -8 3 -5 6 3 4 0 16 -8 28 -8 11
-15 28 -15 37 0 10 -12 27 -27 38 -16 11 -35 27 -43 34 -24 22 -44 32 -35 18
6 -10 3 -11 -14 -2 -11 7 -21 16 -21 21 0 5 -6 7 -14 4 -12 -5 -42 30 -44 50
0 5 -5 12 -11 15 -6 4 -14 31 -19 61 -8 57 -14 -82 -29 -718 -6 -261 -8 -282
-24 -282 -10 0 -21 -5 -25 -11 -8 -14 5 -11 266 52 1079 264 2317 762 3100
1247 329 204 602 415 813 628 221 224 347 445 347 608 0 41 -28 147 -50 185
-4 7 -12 -56 -18 -140 -27 -386 -37 -200 -41 760 0 256 -3 467 -6 469 -3 3 -6
-316 -7 -709 -1 -393 -4 -673 -7 -624 l-6 90 -7 -141 -7 -142 -41 -43 c-23
-24 -54 -62 -69 -84 -28 -39 -85 -91 -160 -146 -22 -15 -42 -32 -45 -38 -7
-11 -37 -3 -48 13 -4 6 -8 -5 -9 -24 0 -19 -5 -46 -9 -60 -5 -16 -8 19 -9 94
-1 66 -3 117 -6 115 -2 -3 -5 -85 -5 -182 -2 -171 -2 -178 -23 -189 -12 -6
-27 -18 -34 -27 -10 -13 -12 320 -13 1563 0 1562 0 1578 -19 1554 -11 -13
-105 -102 -210 -198 l-191 -173 0 -131 c0 -72 -3 -210 -6 -306 -3 -96 -8 -290
-10 -430 -2 -140 -8 -516 -12 -835 -5 -319 -10 -761 -11 -982 l-1 -402 -22
-21 c-17 -15 -24 -17 -27 -8 -2 7 -7 15 -12 18 -9 6 -16 399 -23 1419 -3 431
-7 786 -11 789 -3 3 -5 -503 -5 -1124 0 -712 -4 -1135 -10 -1144 -6 -10 -10
425 -12 1240 -1 1254 -1 1254 -9 525 -6 -655 -24 -1323 -35 -1334 -2 -2 -4 10
-4 27 0 70 -39 206 -64 224 -6 4 -14 2 -18 -5 -8 -13 -12 4 -9 32 2 7 -2 10
-8 7 -6 -4 -21 -1 -33 6 -13 7 -26 11 -30 10 -5 -1 -8 2 -8 7 0 5 -15 8 -32 6
-18 -1 -37 0 -43 4 -5 3 -28 6 -49 7 -27 1 -44 8 -55 23 -11 14 -23 20 -34 15
-14 -5 -17 -22 -19 -108 l-1 -101 -8 130 c-3 72 -8 353 -9 625 -2 278 -6 462
-10 420 -4 -41 -8 -520 -9 -1065 -1 -544 -5 -984 -9 -977 -12 17 -38 5 -47
-21 -7 -20 -8 -20 -14 8 -3 17 -11 38 -17 48 -14 23 -51 30 -62 10 -18 -32
-23 131 -20 672 5 839 7 915 23 885 7 -14 11 -29 8 -34 -4 -5 -1 -6 5 -2 7 4
12 1 12 -6 0 -9 2 -10 8 -1 5 8 11 3 19 -13 6 -13 7 -22 2 -18 -12 7 -12 -9 0
-21 6 -6 12 -32 14 -60 2 -27 4 712 5 1643 1 930 1 1692 0 1691 -2 -1 -37 -38
-78 -82z m-390 -539 c0 -11 -7 -26 -15 -34 -13 -14 -15 -11 -15 25 0 32 3 39
15 35 8 -4 15 -15 15 -26z m350 -47 l0 -68 -120 -109 c-66 -60 -124 -110 -128
-111 -4 -2 -7 25 -8 60 l0 62 125 117 c69 64 127 117 129 118 1 0 2 -31 2 -69z
m-22 -592 c-44 -37 -53 -39 -55 -12 0 14 -7 36 -14 49 -12 23 -14 23 -33 8
-12 -9 11 14 49 51 l70 68 3 -72 c3 -65 1 -74 -20 -92z m-838 -112 l0 -63
-115 -92 c-63 -51 -117 -92 -120 -92 -3 0 -5 26 -5 58 l0 58 118 96 c64 53
118 97 120 97 1 1 2 -27 2 -62z m856 -102 c-2 -7 -19 -23 -38 -36 -27 -19 -30
-19 -16 -3 15 18 16 24 3 59 -13 39 -13 41 18 72 l32 31 3 -55 c2 -31 1 -61
-2 -68z m1134 33 c0 -52 -1 -54 -58 -100 -31 -25 -68 -56 -81 -67 -13 -12 -26
-21 -28 -21 -1 0 -3 24 -3 53 l0 52 83 67 c45 36 83 67 85 67 1 1 2 -23 2 -51z
m-2008 -228 c-11 -8 -65 -50 -121 -93 l-102 -78 3 63 3 63 115 87 115 88 3
-57 c3 -46 0 -60 -16 -73z m877 17 c1 -60 -1 -65 -26 -76 -27 -12 -27 -12 -10
6 11 13 17 36 17 70 0 42 5 63 16 63 1 0 2 -29 3 -63z m1131 11 l0 -53 -85
-67 -85 -67 0 57 0 57 83 62 c45 35 83 63 85 63 1 0 2 -24 2 -52z m-1990 -175
l0 -58 -114 -82 c-62 -46 -116 -83 -120 -83 -3 0 -6 24 -6 54 l0 54 113 85
c61 47 115 86 120 86 4 1 7 -25 7 -56z m1990 -25 l0 -53 -85 -67 -85 -67 0 58
0 58 83 61 c45 34 83 62 85 62 1 0 2 -24 2 -52z m-1990 -197 l0 -59 -82 -58
c-46 -32 -98 -69 -115 -81 l-33 -22 0 62 0 62 108 77 c59 42 110 77 115 77 4
1 7 -26 7 -58z m1978 -66 c-7 -7 -46 -36 -85 -64 l-73 -51 0 60 c0 33 3 60 8
60 4 0 41 24 82 53 l75 53 3 -49 c2 -32 -2 -55 -10 -62z m10 -146 l-3 -52 -82
-58 -83 -59 0 58 0 57 78 52 c42 28 81 52 85 52 4 1 7 -22 5 -50z m-1990 -21
l-3 -61 -78 -54 c-43 -29 -81 -53 -85 -53 -4 0 -5 21 -3 46 3 44 2 46 -20 39
-20 -6 -22 -5 -12 6 17 18 186 137 196 138 4 1 7 -27 5 -61z m-1008 -82 l0
-55 -82 -59 c-46 -32 -95 -67 -110 -77 l-28 -17 0 55 0 56 108 75 c59 42 108
76 110 76 1 0 2 -24 2 -54z m3000 -100 l0 -54 -64 -42 c-36 -23 -70 -48 -77
-56 -21 -26 -29 -14 -28 44 l0 57 77 51 c42 29 80 52 85 53 4 0 7 -23 7 -53z
m-1991 -46 l2 -59 -48 -35 c-26 -19 -65 -44 -85 -56 l-38 -21 0 58 0 58 83 57
c45 31 82 57 83 58 1 0 2 -27 3 -60z m-1009 -57 l-1 -58 -104 -67 c-58 -38
-109 -68 -113 -68 -4 0 -5 24 -4 52 l4 53 106 72 c59 39 108 72 110 72 1 1 2
-25 2 -56z m2697 -25 c-3 -8 -6 -5 -6 6 -1 11 2 17 5 13 3 -3 4 -12 1 -19z
m-1697 -128 c-4 -19 -8 -28 -9 -18 -1 16 -12 17 -43 4 -14 -6 -15 -12 -6 -31
9 -19 7 -30 -6 -50 l-17 -26 40 21 c23 11 41 18 41 16 0 -4 -147 -96 -153 -96
-7 0 2 113 10 121 10 10 147 96 150 95 1 -1 -2 -17 -7 -36z m1872 8 c-7 -7
-12 -35 -12 -64 0 -37 -4 -54 -15 -58 -12 -4 -15 5 -15 52 0 49 3 59 23 68 30
16 33 16 19 2z m-2879 -109 c-4 -4 -54 -37 -110 -73 l-103 -65 0 57 1 57 107
66 107 66 3 -50 c2 -27 0 -53 -5 -58z m3002 91 c-3 -4 -22 -18 -42 -30 l-38
-22 35 34 c31 30 59 41 45 18z m-2995 -234 c0 -53 0 -54 -47 -84 -35 -22 -164
-93 -168 -92 0 0 -1 24 -2 53 l-2 52 102 61 c56 34 105 62 110 63 4 0 7 -23 7
-53z m991 -69 c-7 -7 -8 -2 -4 13 6 22 5 23 -43 16 -27 -4 -59 -8 -71 -10 -40
-7 -25 9 50 52 l72 42 3 -51 c2 -29 -1 -56 -7 -62z m1849 -542 c0 -360 -4
-585 -9 -585 -6 0 -10 113 -11 283 -1 288 10 887 17 887 1 0 3 -263 3 -585z
m-1870 531 c0 -2 -27 -20 -60 -39 l-60 -36 0 24 c0 17 6 25 18 26 39 2 58 6
77 17 22 13 25 14 25 8z m-970 -120 l0 -53 -57 -35 c-32 -20 -68 -39 -80 -42
-21 -7 -23 -4 -23 33 0 23 -1 44 -2 48 -3 7 140 101 155 102 4 1 7 -23 7 -53z
m0 -204 l0 -57 -54 -33 c-30 -17 -57 -32 -61 -32 -3 0 -5 26 -3 57 l3 57 55
32 c30 18 56 33 58 34 1 0 2 -26 2 -58z m0 -220 l0 -57 -54 -33 c-30 -17 -57
-32 -60 -32 -3 0 -6 27 -6 59 l0 60 53 29 c28 16 55 30 60 31 4 0 7 -25 7 -57z
m0 -222 l0 -60 -50 -25 c-27 -14 -53 -25 -57 -25 -4 0 -9 24 -11 54 l-3 54 53
30 c29 16 56 30 61 31 4 0 7 -26 7 -59z m109 -1085 c0 -357 -3 -655 -7 -661
-4 -7 -18 -14 -32 -15 -14 -2 -28 -8 -32 -13 -3 -5 -37 -17 -75 -26 -67 -16
-68 -16 -77 4 -10 25 -2 1318 8 1335 6 9 12 8 26 -4 15 -14 18 -14 30 0 7 8 9
15 4 15 -5 1 2 7 15 14 27 15 33 12 64 -37 14 -22 21 -26 32 -17 10 8 14 8 18
-2 3 -7 6 41 8 107 l2 120 8 -85 c4 -47 7 -377 8 -735z m853 735 c2 -14 5 -27
8 -30 11 -10 30 -62 30 -80 0 -31 28 -23 35 10 4 17 11 28 16 24 5 -3 9 5 9
18 1 21 1 21 11 5 17 -30 24 -476 10 -646 -14 -170 -23 -212 -61 -266 -15 -22
-39 -59 -54 -82 -32 -47 -105 -91 -118 -70 -4 6 -8 194 -8 417 0 413 10 782
20 722 7 -46 23 -44 40 6 l14 42 23 -22 c12 -13 24 -34 25 -48z"/>
<path d="M8973 8568 l-21 -23 24 -18 24 -18 0 41 c0 22 -1 40 -3 40 -2 0 -13
-10 -24 -22z"/>
<path d="M6890 7155 c-14 -8 -20 -14 -14 -15 5 0 19 7 30 15 24 18 16 19 -16
0z"/>
<path d="M9700 8040 c0 -178 0 -180 20 -168 18 12 19 13 2 20 -9 5 55 6 143 4
554 -14 1166 -297 1620 -751 329 -330 551 -696 680 -1121 101 -333 124 -634
79 -1014 -25 -216 -149 -604 -207 -653 -22 -17 -177 -100 -177 -94 0 2 24 59
54 128 69 161 112 287 140 410 l22 98 59 39 c56 37 117 92 102 92 -4 0 -32
-20 -62 -45 -30 -24 -64 -49 -76 -55 -19 -11 -21 -10 -15 17 27 133 34 432 15
603 -6 52 -11 115 -11 140 0 34 -2 40 -8 25 -5 -11 -9 -31 -9 -44 -1 -13 -17
-44 -37 -68 -20 -24 -33 -47 -29 -51 7 -8 41 32 57 68 11 24 12 22 20 -25 16
-85 12 -448 -6 -569 -9 -60 -16 -111 -16 -113 0 -12 -301 -133 -330 -133 -5 0
-6 17 -3 38 5 32 101 191 139 229 17 18 71 160 89 235 17 74 18 78 6 78 -4 0
-11 -24 -14 -52 -6 -60 -75 -226 -116 -278 -72 -94 -172 -267 -170 -298 0 -9
11 7 25 37 25 55 44 68 23 15 -7 -16 -13 -36 -14 -44 -1 -8 -12 -50 -23 -93
-25 -90 -30 -164 -6 -82 8 28 23 82 33 120 l18 70 94 33 c52 18 129 48 172 67
62 26 77 30 72 17 -4 -9 -19 -67 -35 -128 -36 -139 -163 -463 -191 -486 -12
-10 -29 -18 -40 -18 -10 0 -21 -5 -25 -11 -4 -8 4 -9 27 -4 33 7 33 7 18 -11
-9 -11 -20 -30 -24 -42 -18 -62 -258 -380 -336 -448 -26 -22 -144 -65 -257
-93 l-71 -17 62 68 c141 155 247 299 305 413 l30 60 71 18 c39 10 71 23 71 28
0 11 6 12 -67 -10 -35 -11 -63 -18 -63 -16 0 1 7 16 15 31 8 16 18 45 21 64 4
19 15 47 25 61 32 46 78 179 61 179 -4 0 -18 -34 -31 -76 -19 -61 -32 -84 -64
-113 -94 -85 -167 -163 -167 -178 0 -13 8 -14 39 -9 22 3 47 9 56 12 10 4 0
-21 -30 -72 -90 -152 -212 -309 -322 -415 l-58 -56 -120 -17 c-157 -21 -291
-36 -338 -36 l-37 0 64 93 c72 105 123 196 157 281 l24 60 6 -65 c5 -50 2 -75
-13 -116 -11 -29 -18 -65 -16 -80 3 -24 8 -29 37 -31 19 -2 37 1 40 6 8 12 62
40 110 57 36 12 165 97 176 116 4 5 10 7 15 4 5 -3 12 0 16 6 4 8 3 9 -4 5
-32 -19 -5 17 58 80 66 64 120 145 120 178 0 20 85 112 145 156 71 53 103 135
116 302 10 133 14 157 41 213 10 22 13 32 5 23 -19 -25 -32 -22 -45 7 -7 15
-20 25 -32 25 -11 0 -20 5 -20 10 0 6 -11 15 -25 22 -13 6 -22 15 -19 20 3 5
2 7 -3 6 -17 -4 -53 14 -53 28 0 12 -6 16 -26 13 -3 0 -13 8 -22 18 -17 17
-34 25 -59 26 -7 0 -13 4 -13 9 0 4 -7 8 -16 8 -8 0 -22 7 -30 15 -9 8 -24 15
-35 15 -11 0 -22 7 -25 15 -4 8 -12 15 -20 15 -8 0 -14 4 -14 8 0 4 -12 9 -27
10 -15 1 -30 7 -34 13 -4 7 -11 9 -17 5 -6 -3 -14 0 -19 8 -4 8 -12 16 -18 18
-5 2 -9 7 -7 11 1 5 -2 6 -8 2 -5 -3 -16 -3 -22 2 -7 4 -15 8 -18 8 -21 3 -50
18 -50 26 0 6 -4 7 -10 4 -5 -3 -10 -1 -10 5 0 6 -4 8 -10 5 -5 -3 -10 1 -10
9 0 9 -6 15 -12 14 -7 -2 -12 3 -10 10 1 8 -2 11 -7 8 -5 -3 -24 8 -42 25 -66
61 -82 74 -75 62 4 -7 2 -13 -3 -13 -6 0 -11 3 -11 8 0 4 -9 13 -21 20 -17 11
-20 11 -13 0 4 -7 -4 -1 -19 15 -14 15 -31 27 -37 27 -5 0 -10 7 -10 15 0 8
-6 12 -14 9 -8 -3 -17 0 -22 7 -5 8 -3 10 7 4 8 -5 5 1 -5 13 -11 12 -24 22
-30 21 -6 0 -6 -3 2 -6 6 -2 12 -10 12 -16 -1 -7 -10 -1 -20 12 -12 13 -26 21
-35 17 -8 -3 -27 6 -43 19 -16 14 -32 22 -35 19 -3 -3 -20 3 -39 12 -18 10
-44 19 -57 21 -14 1 -44 4 -68 7 -29 3 -48 0 -57 -10 -16 -16 -30 -19 -21 -5
3 5 0 13 -7 17 -7 4 -10 4 -6 -1 10 -10 -11 -37 -23 -29 -5 3 -9 0 -9 -5 0 -6
-7 -11 -16 -11 -10 0 -14 -5 -10 -16 3 -8 2 -12 -4 -9 -14 9 -8 55 7 55 7 0
14 6 14 13 1 6 2 19 3 27 1 8 -3 24 -8 35 -16 34 -17 75 -2 75 18 0 37 24 39
49 1 12 4 21 7 21 3 0 4 24 2 54 -3 51 -1 56 37 98 23 23 41 47 41 53 0 21
-108 -106 -138 -163 -37 -70 -49 -81 -25 -24 29 70 46 96 96 149 45 48 49 56
44 88 -5 32 -1 41 39 86 25 28 44 59 43 72 0 22 0 22 -10 -2 -5 -13 -23 -39
-39 -58 -42 -47 -62 -90 -54 -115 5 -15 -5 -31 -40 -67 -25 -25 -64 -82 -87
-126 -31 -61 -39 -72 -35 -45 20 113 24 283 11 425 -13 138 -34 248 -51 264
-3 3 -4 -3 -1 -14 20 -71 27 -112 37 -210 14 -155 13 -290 -5 -414 -63 -431
-227 -734 -599 -1107 -411 -412 -909 -730 -1546 -987 -415 -168 -937 -311
-1410 -387 -646 -103 -1392 -112 -2078 -25 -489 62 -860 145 -1124 249 -62 25
-114 43 -116 41 -3 -2 49 -29 114 -60 66 -31 136 -65 156 -76 20 -11 61 -28
90 -38 29 -11 78 -28 108 -39 30 -11 80 -28 110 -37 30 -10 58 -23 61 -28 4
-5 18 -10 33 -10 14 -1 26 -5 26 -8 0 -4 10 -9 23 -12 12 -2 74 -20 137 -40
231 -70 608 -150 855 -181 548 -69 1239 -57 1762 29 566 93 1087 251 1545 467
l126 60 44 -33 c23 -19 49 -41 56 -49 7 -8 11 -9 7 -2 -9 18 125 -76 154 -107
13 -14 20 -19 15 -11 -4 8 5 2 19 -13 15 -15 32 -25 37 -22 10 6 69 -25 94
-51 22 -21 197 -111 273 -140 142 -53 181 -66 286 -95 188 -51 506 -88 657
-75 41 3 138 10 215 16 131 9 306 34 420 60 144 32 358 107 348 122 -4 7 -1 8
6 4 14 -9 73 13 66 24 -7 11 24 22 37 13 7 -4 8 -1 3 7 -6 10 -4 12 9 7 11 -5
15 -3 10 5 -5 8 -2 9 10 5 11 -5 15 -3 10 5 -5 8 -2 9 10 5 9 -4 15 -3 12 2
-4 5 24 26 61 46 218 119 479 334 637 524 226 272 399 606 480 929 63 248 71
315 71 622 0 251 -3 300 -23 409 -98 542 -331 984 -742 1405 -243 249 -487
435 -741 566 -321 165 -671 265 -1019 291 -74 6 -153 14 -175 18 -37 8 -35 9
28 10 59 1 67 3 67 20 0 11 7 26 15 34 12 13 12 16 -8 21 -12 3 -49 7 -82 7
l-60 2 55 7 55 7 -57 1 -58 2 0 -180z m1602 -521 c33 -23 67 -42 76 -44 10 -1
16 -7 15 -13 -1 -5 21 -28 50 -50 29 -22 65 -54 81 -71 17 -17 35 -31 41 -31
6 0 41 -37 78 -82 62 -74 68 -85 65 -121 -2 -25 -10 -44 -20 -51 -15 -9 -31 2
-100 70 -74 72 -173 157 -362 311 -65 54 -86 73 -86 78 0 2 10 13 22 25 33 31
72 25 140 -21z m-1202 -2045 c-29 -84 -19 -151 31 -208 21 -24 40 -56 43 -72
3 -18 20 -41 43 -59 21 -16 51 -42 66 -57 38 -36 76 -43 122 -23 21 8 40 13
43 10 7 -6 -13 -277 -29 -396 l-11 -86 -229 -7 c-125 -4 -252 -5 -282 -1 l-53
7 0 38 c1 21 4 36 9 33 14 -8 25 43 30 143 4 61 12 111 21 129 9 17 16 41 16
55 0 13 17 76 38 140 48 143 86 260 88 274 2 6 15 58 30 116 28 105 28 105 36
63 5 -32 2 -58 -12 -99z m114 -294 c10 -13 9 -13 -6 -1 -10 7 -18 21 -17 30 0
13 1 14 6 1 3 -8 11 -22 17 -30z m-300 -50 c-45 -113 -155 -311 -256 -462
-163 -245 -445 -521 -743 -728 -223 -156 -643 -374 -945 -493 -179 -70 -448
-162 -455 -155 -2 2 35 17 83 32 545 176 1121 466 1452 733 94 76 207 181 174
162 -18 -10 -25 -10 -38 3 -28 28 -69 31 -112 8 l-39 -22 45 39 c24 21 76 64
115 96 324 270 594 570 704 785 27 53 36 54 15 2z m840 10 c6 -6 -9 -7 -42 -3
-43 5 -60 1 -105 -21 -36 -17 -71 -26 -103 -26 -27 0 -68 -7 -91 -15 -29 -10
-49 -12 -65 -5 -19 7 -16 9 20 9 24 1 56 8 72 16 20 10 42 13 70 9 28 -5 47
-2 63 9 63 41 153 55 181 27z m-26 -26 c13 -4 25 -17 28 -31 6 -22 11 -24 38
-20 17 3 39 9 50 13 16 6 17 4 11 -17 -6 -20 -5 -22 6 -11 25 23 30 12 24 -45
-5 -42 -3 -54 4 -43 6 8 11 29 11 47 0 17 5 35 10 38 14 9 11 -22 -9 -85 -12
-39 -22 -55 -34 -54 -21 2 -22 -27 -2 -66 16 -32 31 -41 21 -14 -6 14 -4 15 9
4 11 -9 12 -15 5 -20 -7 -4 -2 -22 15 -51 13 -24 25 -36 25 -27 0 9 4 19 9 22
5 3 9 -10 9 -29 0 -22 -4 -33 -11 -28 -7 4 -8 -6 -4 -30 6 -40 14 -37 -108
-53 -62 -8 -389 -31 -393 -28 -2 1 3 65 12 141 8 76 17 184 18 240 l3 103 40
0 c24 0 56 10 80 24 40 24 89 31 133 20z m157 -13 c3 -6 -3 -10 -12 -9 -10 0
-34 -3 -53 -6 l-35 -7 30 15 c35 17 62 20 70 7z m-1208 -513 c-3 -7 -5 -2 -5
12 0 14 2 19 5 13 2 -7 2 -19 0 -25z m1269 -35 c-4 -38 -10 -77 -13 -88 -4
-16 -3 -18 8 -7 24 23 33 12 9 -13 -12 -13 -27 -23 -33 -22 -6 1 -28 -32 -50
-73 -41 -79 -40 -69 -21 -207 6 -49 5 -53 -17 -62 -27 -10 -486 -38 -494 -30
-3 3 4 41 15 85 38 147 81 377 76 399 -6 22 -3 23 87 30 178 13 374 37 436 54
2 1 0 -29 -3 -66z m44 53 c0 -8 -4 -18 -10 -21 -5 -3 -10 3 -10 14 0 12 5 21
10 21 6 0 10 -6 10 -14z m-591 -83 c-5 -21 -24 -114 -44 -208 -19 -93 -41
-193 -50 -221 l-15 -52 -189 -1 c-123 -1 -191 2 -196 8 -5 10 22 16 48 12 4
-1 0 13 -9 31 -16 32 -16 32 1 18 17 -14 17 -13 8 5 -6 11 -11 24 -11 28 -2
18 -53 68 -63 61 -7 -4 -9 0 -5 14 4 13 -1 37 -14 61 -14 29 -17 41 -8 42 10
0 10 2 1 6 -9 3 -13 28 -13 72 0 37 -3 71 -7 75 -4 4 -8 15 -8 24 0 13 12 19
45 23 39 5 36 6 -26 7 -39 1 -87 5 -105 10 -19 4 96 9 266 12 165 3 323 6 351
8 l51 2 -8 -37z m579 12 c-3 -3 -9 2 -12 12 -6 14 -5 15 5 6 7 -7 10 -15 7
-18z m-1301 -92 c-4 -58 -7 -171 -7 -250 0 -98 -3 -143 -11 -143 -8 0 -10 42
-5 148 3 81 7 193 9 249 1 57 6 103 11 103 5 0 6 -45 3 -107z m1243 -31 c0 -5
-7 -17 -15 -28 -14 -18 -14 -17 -4 9 12 27 19 34 19 19z m-50 -118 c-10 -27
-19 -43 -20 -37 0 16 31 95 36 90 2 -2 -5 -25 -16 -53z m1114 -56 c-74 -132
-139 -229 -215 -320 -68 -81 -81 -91 -189 -147 -125 -64 -134 -63 -65 10 120
127 251 304 308 414 22 45 31 52 84 72 32 13 74 36 93 52 19 16 37 28 38 26 2
-2 -22 -50 -54 -107z m-434 27 c-29 -75 -49 -102 -82 -108 -18 -3 -42 -9 -52
-13 -19 -7 -19 -7 0 25 18 30 120 121 136 121 4 0 3 -11 -2 -25z m-663 -167
c-3 -8 -6 -5 -6 6 -1 11 2 17 5 13 3 -3 4 -12 1 -19z m-12 -58 c-4 -12 -9 -19
-12 -17 -3 3 -2 15 2 27 4 12 9 19 12 17 3 -3 2 -15 -2 -27z m-35 14 c0 -21
-162 -315 -222 -405 l-72 -106 -96 -7 c-116 -7 -310 -8 -310 -1 0 3 11 27 24
53 26 53 93 229 130 342 17 52 21 77 13 82 -18 11 28 16 193 23 85 4 187 10
225 15 99 10 115 11 115 4z m-1174 -40 c-3 -9 -6 -121 -6 -250 l0 -234 -22 0
c-20 1 -21 2 -6 10 15 9 17 36 17 239 l1 229 -62 6 c-35 3 -79 8 -98 9 -19 2
14 5 74 5 95 2 107 0 102 -14z m569 -153 c-30 -86 -71 -196 -90 -243 -34 -82
-38 -86 -73 -93 -20 -4 -114 -3 -209 1 l-173 7 2 136 2 136 3 -120 c2 -66 8
-124 13 -129 7 -7 10 -6 10 3 0 7 5 9 10 6 6 -3 10 -1 10 4 0 6 13 11 29 11
17 0 33 5 36 10 4 6 12 7 18 3 19 -12 37 -12 37 -1 0 6 6 6 15 -2 8 -6 19 -9
25 -5 5 3 10 -2 10 -12 0 -11 3 -14 8 -7 5 9 10 8 19 -1 10 -11 7 -15 -20 -18
-17 -2 16 -5 76 -5 59 -1 107 0 107 2 0 2 3 13 6 23 5 17 5 17 -6 1 -12 -19
-40 -25 -40 -8 0 6 -3 9 -7 9 -20 -3 -34 2 -29 10 4 5 0 12 -6 14 -8 3 -6 6 5
6 20 1 22 12 5 29 -8 8 -6 17 11 34 18 18 31 23 61 20 33 -3 37 -7 33 -25 -5
-26 32 50 41 84 6 20 5 21 -4 7 -10 -16 -13 -15 -40 9 -16 14 -27 30 -24 34 3
5 -5 13 -18 18 -33 13 -69 47 -60 57 4 4 0 3 -8 -3 -13 -10 -16 -8 -17 8 -1
11 3 17 9 13 6 -4 5 2 -2 16 -6 12 -9 28 -6 36 3 8 -3 23 -14 34 -19 19 -18
19 63 23 65 2 56 3 -43 5 -69 1 -170 5 -225 10 -82 6 -47 8 195 12 162 3 298
4 302 2 4 -1 -17 -74 -47 -161z m-241 93 c3 -8 2 -12 -4 -9 -6 3 -10 10 -10
16 0 14 7 11 14 -7z m873 -111 c-3 -10 -5 -4 -5 12 0 17 2 24 5 18 2 -7 2 -21
0 -30z m-1710 -25 c-3 -8 -6 -5 -6 6 -1 11 2 17 5 13 3 -3 4 -12 1 -19z m1689
-30 c-18 -26 -22 -17 -5 14 6 11 13 17 16 15 3 -3 -2 -16 -11 -29z m794 -24
c-71 -72 -196 -177 -310 -259 -164 -117 -502 -282 -554 -269 -12 3 -35 0 -50
-6 -16 -6 -31 -8 -34 -6 -3 3 4 8 14 12 10 4 75 31 144 62 196 86 335 176 506
327 56 50 97 77 140 93 32 12 84 37 114 56 75 46 82 44 30 -10z m-2473 14 c-3
-8 -6 -5 -6 6 -1 11 2 17 5 13 3 -3 4 -12 1 -19z m72 -207 c1 -15 -56 -12
-227 11 -133 18 -86 21 62 4 74 -9 139 -16 145 -16 5 0 -3 39 -20 87 -16 48
-29 92 -28 97 1 14 68 -165 68 -183z m19 72 c16 -46 27 -83 23 -83 -8 0 -72
178 -70 195 1 12 9 -7 47 -112z m-438 19 c36 -57 38 -62 17 -57 -51 11 -173
35 -181 35 -5 0 -7 3 -4 6 5 5 90 -7 156 -22 24 -5 24 -4 -9 53 -40 72 -32 66
21 -15z m2035 50 c-3 -3 -11 0 -18 7 -9 10 -8 11 6 5 10 -3 15 -9 12 -12z
m-1999 -47 c14 -25 33 -50 42 -55 15 -10 15 -10 -1 -8 -16 3 -87 108 -73 108
3 0 17 -20 32 -45z m2534 10 c0 -9 -182 -156 -256 -206 -84 -57 -236 -134
-388 -199 -101 -43 -112 -45 -181 -42 l-40 2 55 32 c30 17 104 60 163 95 60
35 113 61 120 57 7 -4 9 -3 4 1 -4 5 19 25 50 45 32 20 85 58 117 85 52 42 72
51 155 71 53 13 119 32 146 43 28 10 51 20 53 20 1 1 2 -1 2 -4z m-2595 -236
c33 -25 81 -58 107 -73 25 -15 52 -34 59 -42 17 -21 -76 35 -149 88 -78 58
-179 148 -199 178 -9 14 15 -4 53 -40 38 -36 96 -86 129 -111z m2265 147 c0
-7 -198 -146 -232 -163 -18 -9 -72 -40 -119 -69 -110 -67 -225 -125 -314 -157
-38 -14 -79 -29 -89 -33 -14 -5 -17 -4 -12 5 9 14 -99 14 -127 -1 -10 -5 -21
-8 -23 -5 -2 2 34 27 80 56 86 52 247 196 301 269 29 40 30 40 115 46 114 9
325 35 369 46 45 10 51 11 51 6z m-2167 -35 c30 -51 206 -228 280 -282 92 -67
103 -78 48 -48 -56 30 -202 159 -261 230 -66 79 -102 129 -93 129 5 0 16 -13
26 -29z m652 -1 l70 -7 -85 0 c-47 0 -119 3 -160 7 l-75 7 90 0 c50 0 122 -3
160 -7z m-550 -77 c71 -83 174 -173 250 -217 26 -15 44 -30 41 -33 -13 -13
-176 108 -252 189 -51 54 -118 138 -111 138 4 0 36 -35 72 -77z m241 61 c13
-3 34 -32 58 -82 51 -103 99 -174 171 -252 l60 -65 -51 43 c-29 23 -59 42 -67
42 -9 0 -19 5 -22 10 -3 6 1 10 10 10 9 0 13 5 10 10 -4 6 -10 8 -14 6 -4 -3
-8 1 -8 8 0 7 -13 32 -30 57 -17 24 -47 78 -68 119 -21 41 -39 76 -41 78 -1 2
-24 7 -51 12 -42 7 -44 8 -13 9 19 0 44 -2 56 -5z m-575 -21 c13 -16 12 -17
-3 -4 -10 7 -18 15 -18 17 0 8 8 3 21 -13z m894 1 l101 -7 12 -171 c7 -94 15
-182 18 -196 4 -14 4 -22 -1 -18 -4 4 -10 21 -14 39 -7 35 -11 36 -95 40 -28
1 -60 7 -71 12 -15 7 -12 1 10 -24 16 -19 6 -11 -24 16 -65 61 -118 137 -171
245 l-40 83 88 -6 c48 -4 132 -9 187 -13z m872 -100 c-71 -74 -131 -126 -201
-172 l-100 -65 -90 2 -91 2 -54 -51 c-29 -27 -57 -50 -61 -50 -5 0 18 25 50
56 68 65 138 162 204 286 l47 87 127 4 c70 1 159 4 198 5 l72 2 -101 -106z
m-337 82 c0 -13 -74 -148 -125 -226 -43 -67 -142 -176 -151 -167 -3 3 11 21
32 40 l38 34 -91 7 -90 7 -7 61 c-3 34 -6 105 -6 160 l0 98 200 -2 c112 -2
200 -7 200 -12z m-1283 -110 c11 -17 -58 29 -80 53 -17 19 -11 17 26 -10 27
-18 51 -38 54 -43z m2263 -146 c-8 -5 -19 -10 -25 -10 -5 0 -3 5 5 10 8 5 20
10 25 10 6 0 3 -5 -5 -10z m-332 -31 c-9 -5 -53 -18 -97 -29 -44 -11 -88 -23
-98 -26 -10 -3 3 6 29 20 53 29 213 63 166 35z m-208 -15 c-157 -35 -195 -45
-209 -58 -18 -15 -129 -41 -138 -32 -4 3 1 6 10 6 20 0 99 25 146 47 73 33
139 50 196 51 l60 0 -65 -14z m-1220 -20 c0 -2 -9 0 -20 6 -11 6 -20 13 -20
16 0 2 9 0 20 -6 11 -6 20 -13 20 -16z m407 -31 c-3 -10 -5 -4 -5 12 0 17 2
24 5 18 2 -7 2 -21 0 -30z m368 18 c-12 -12 -111 -51 -128 -51 -7 0 14 11 46
24 33 14 61 27 65 30 3 3 10 6 16 6 6 0 6 -3 1 -9z m5 -31 c-19 -11 -39 -19
-45 -19 -5 0 6 8 25 19 19 11 40 19 45 19 6 0 -6 -8 -25 -19z m87 -6 c-3 -3
-12 -4 -19 -1 -8 3 -5 6 6 6 11 1 17 -2 13 -5z m-157 -24 c-8 -5 -19 -10 -25
-10 -5 0 -3 5 5 10 8 5 20 10 25 10 6 0 3 -5 -5 -10z"/>
<path d="M10208 3651 c-10 -25 -16 -47 -13 -49 3 -3 5 0 5 6 0 7 6 12 14 12 7
0 19 7 26 15 8 9 8 15 2 15 -6 0 -12 10 -14 23 -2 18 -6 13 -20 -22z"/>
<path d="M11160 3420 c-8 -5 -10 -10 -5 -10 6 0 17 5 25 10 8 5 11 10 5 10 -5
0 -17 -5 -25 -10z"/>
<path d="M11100 3410 c-8 -5 -10 -10 -5 -10 6 0 17 5 25 10 8 5 11 10 5 10 -5
0 -17 -5 -25 -10z"/>
<path d="M10892 3297 c-41 -17 -69 -33 -64 -35 15 -5 119 37 132 53 15 18 20
20 -68 -18z"/>
<path d="M10544 3488 c-19 -23 -19 -23 1 -7 11 10 29 19 40 22 19 4 19 5 -1 6
-11 0 -29 -9 -40 -21z"/>
<path d="M10440 3373 l-65 -68 68 65 c37 35 67 66 67 67 0 8 -10 -2 -70 -64z"/>
<path d="M10324 3268 l-19 -23 23 19 c21 18 27 26 19 26 -2 0 -12 -10 -23 -22z"/>
<path d="M10253 3219 c-18 -12 -33 -23 -33 -25 0 -7 58 25 65 36 9 14 5 13
-32 -11z"/>
<path d="M9310 3514 c0 -29 117 -236 142 -250 10 -6 11 -4 1 7 -23 24 -15 35
23 31 22 -3 34 -1 31 5 -3 5 0 10 8 10 8 0 15 -4 15 -9 0 -4 5 -8 11 -8 5 0 7
4 4 10 -3 6 1 7 9 4 9 -3 16 -12 16 -18 0 -7 7 -13 15 -13 18 0 19 9 3 26 -10
11 -10 13 0 7 6 -4 12 -2 12 3 0 10 -13 15 -31 13 -3 -1 -6 5 -6 12 0 18 20
14 41 -7 19 -19 31 -23 21 -7 -3 6 -2 10 4 10 5 0 12 -15 14 -32 2 -18 4 17 3
77 l-1 110 -100 7 c-55 3 -130 9 -167 12 -38 2 -68 3 -68 0z"/>
<path d="M10415 3491 c19 -5 29 -12 27 -21 -3 -10 3 -9 17 4 12 11 21 21 21
23 0 1 -21 2 -47 2 -41 -1 -44 -2 -18 -8z"/>
<path d="M10121 3463 l-12 -28 18 22 c15 19 30 23 93 26 l75 3 -81 2 c-79 2
-81 2 -93 -25z"/>
<path d="M9705 3463 c2 -16 4 -31 4 -34 2 -11 31 -6 31 5 0 6 4 5 9 -3 5 -8
16 -11 26 -7 13 5 16 2 11 -11 -6 -14 -4 -14 15 3 20 17 22 17 16 1 -5 -14 -3
-16 12 -8 10 6 21 7 25 4 3 -3 6 -2 6 4 0 6 9 9 20 6 14 -4 20 0 20 11 0 10 5
14 10 11 6 -4 10 -3 9 2 -6 34 37 44 108 24 24 -7 33 -6 37 5 4 12 -24 14
-179 14 l-184 0 4 -27z"/>
<path d="M10027 3423 c-44 -79 -56 -104 -42 -88 19 23 58 95 51 95 -3 0 -7 -3
-9 -7z"/>
<path d="M9877 8213 c18 -2 50 -2 70 0 21 2 7 4 -32 4 -38 0 -55 -2 -38 -4z"/>
<path d="M10070 8200 c30 -5 71 -8 90 -8 28 1 25 2 -15 8 -27 5 -68 8 -90 8
-35 -1 -33 -2 15 -8z"/>
<path d="M10208 8183 c6 -2 18 -2 25 0 6 3 1 5 -13 5 -14 0 -19 -2 -12 -5z"/>
<path d="M10268 8173 c6 -2 18 -2 25 0 6 3 1 5 -13 5 -14 0 -19 -2 -12 -5z"/>
<path d="M10328 8163 c7 -3 16 -2 19 1 4 3 -2 6 -13 5 -11 0 -14 -3 -6 -6z"/>
<path d="M10368 8153 c6 -2 18 -2 25 0 6 3 1 5 -13 5 -14 0 -19 -2 -12 -5z"/>
<path d="M10475 8130 c39 -11 75 -18 80 -16 12 4 -56 23 -110 30 -24 4 -12 -2
30 -14z"/>
<path d="M10664 8074 c38 -13 71 -22 73 -20 5 5 -116 46 -131 45 -6 0 20 -11
58 -25z"/>
<path d="M10840 8010 c8 -5 20 -10 25 -10 6 0 3 5 -5 10 -8 5 -19 10 -25 10
-5 0 -3 -5 5 -10z"/>
<path d="M10890 7990 c8 -5 20 -10 25 -10 6 0 3 5 -5 10 -8 5 -19 10 -25 10
-5 0 -3 -5 5 -10z"/>
<path d="M10931 7976 c10 -9 129 -66 129 -61 0 5 -116 65 -126 65 -4 0 -5 -2
-3 -4z"/>
<path d="M11150 7866 c0 -3 9 -10 20 -16 11 -6 20 -8 20 -6 0 3 -9 10 -20 16
-11 6 -20 8 -20 6z"/>
<path d="M9991 7844 c0 -11 3 -14 6 -6 3 7 2 16 -1 19 -3 4 -6 -2 -5 -13z"/>
<path d="M9830 7820 c-8 -5 -10 -10 -5 -10 6 0 17 5 25 10 8 5 11 10 5 10 -5
0 -17 -5 -25 -10z"/>
<path d="M9930 7754 c-30 -36 -70 -84 -88 -107 -19 -23 -49 -60 -68 -82 -56
-65 -38 -60 21 6 30 34 55 66 55 71 0 4 26 37 59 72 50 53 89 107 79 106 -2 0
-28 -30 -58 -66z"/>
<path d="M10172 7791 c25 -16 52 -38 59 -48 8 -11 21 -23 29 -28 8 -4 4 4 -10
20 -30 33 -99 85 -113 85 -6 0 10 -13 35 -29z"/>
<path d="M9748 7788 c-27 -11 -48 -25 -48 -29 0 -8 94 33 109 47 11 10 -18 1
-61 -18z"/>
<path d="M10383 7663 c-29 -2 -53 -8 -53 -12 0 -5 9 -19 21 -32 11 -13 17 -18
13 -10 -4 9 -2 12 7 9 8 -3 13 -12 11 -21 -3 -16 8 -21 71 -32 31 -5 42 -2 53
12 9 13 16 15 21 7 8 -12 130 -36 175 -35 15 1 30 -4 34 -10 4 -8 -1 -9 -17
-5 -23 7 -23 7 -5 -8 14 -12 22 -13 27 -5 4 7 19 9 33 7 38 -8 32 6 -13 26
-27 11 -38 22 -34 32 3 7 1 14 -5 14 -6 0 -19 3 -29 6 -17 5 -17 5 0 -6 15
-10 15 -13 3 -26 -18 -18 -27 -18 -20 -1 3 8 -14 23 -45 39 -28 14 -47 29 -43
34 4 5 -1 3 -10 -4 -13 -11 -25 -11 -65 1 -26 8 -55 17 -63 19 -8 2 -39 3 -67
1z m54 -28 c19 -8 44 -15 55 -15 10 0 16 -5 13 -10 -8 -12 -48 -3 -95 21 -42
22 -23 25 27 4z m113 -25 c0 -5 -7 -7 -15 -4 -8 4 -15 8 -15 10 0 2 7 4 15 4
8 0 15 -4 15 -10z m-103 -16 c-3 -3 -12 -4 -19 -1 -8 3 -5 6 6 6 11 1 17 -2
13 -5z m178 -4 l20 -9 -20 0 c-11 0 -27 4 -35 9 -13 9 -13 10 0 9 8 0 24 -4
35 -9z"/>
<path d="M10218 7619 c-33 -36 -37 -60 -6 -33 16 13 19 14 10 2 -15 -19 -10
-23 36 -33 22 -4 32 -12 28 -20 -7 -19 74 -26 95 -9 12 11 18 11 27 2 9 -9 12
-9 12 0 0 11 -12 16 -35 13 -18 -2 -87 77 -73 82 19 6 7 14 -32 20 -30 5 -39
1 -62 -24z"/>
<path d="M11490 7646 c0 -2 8 -10 18 -17 15 -13 16 -12 3 4 -13 16 -21 21 -21
13z"/>
<path d="M10087 7584 c-13 -14 5 -24 44 -24 21 0 39 5 39 10 0 6 -11 10 -24
10 -13 0 -31 2 -38 5 -8 3 -17 3 -21 -1z"/>
<path d="M10878 7574 c13 -9 21 -22 18 -29 -3 -8 6 -21 19 -29 34 -22 39 -20
13 6 -15 15 -18 23 -9 26 8 3 2 11 -16 23 -34 23 -57 26 -25 3z"/>
<path d="M11625 7534 c17 -17 75 -72 130 -124 85 -80 89 -84 30 -22 -38 41
-97 96 -130 125 -33 28 -46 37 -30 21z"/>
<path d="M10001 7538 c-24 -4 -51 -14 -61 -23 -9 -8 -26 -15 -37 -15 -28 0
-85 -20 -104 -36 -9 -8 -19 -11 -22 -7 -4 3 -20 -6 -35 -20 -16 -15 -31 -24
-35 -20 -4 3 -7 -90 -6 -208 l1 -214 51 -45 51 -45 -31 40 c-22 29 -33 55 -36
91 -4 28 -11 72 -18 98 -23 90 10 221 70 285 41 44 81 61 141 61 26 0 31 3 20
10 -18 12 -18 12 48 15 48 2 102 20 102 34 0 9 -49 8 -99 -1z"/>
<path d="M10134 7526 c-37 -16 -50 -42 -27 -55 14 -7 14 -10 -5 -20 -35 -19
-26 -33 18 -29 38 3 40 2 38 -21 -4 -34 43 -59 83 -44 15 6 32 7 39 3 14 -9
73 18 65 29 -2 5 -23 11 -46 15 -39 6 -41 8 -23 21 15 11 21 12 29 1 12 -15
69 -28 90 -20 24 9 18 24 -10 24 -17 0 -25 6 -25 18 0 14 -2 15 -10 2 -9 -13
-13 -12 -28 6 -9 11 -30 26 -45 32 -34 15 -38 15 -34 1 1 -6 -3 -13 -8 -15 -6
-2 -11 6 -12 18 -2 23 -28 48 -47 48 -6 -1 -25 -7 -42 -14z m44 -62 c18 -18
15 -21 -20 -21 -18 0 -27 2 -20 5 10 3 10 8 -3 22 -16 18 -16 18 7 12 12 -3
29 -11 36 -18z m57 -43 c-6 -5 -20 -12 -32 -16 -18 -5 -22 -3 -17 9 3 9 18 16
32 16 16 0 22 -4 17 -9z m15 -25 c0 -3 -4 -8 -10 -11 -5 -3 -10 -1 -10 4 0 6
5 11 10 11 6 0 10 -2 10 -4z"/>
<path d="M9710 7515 c0 -8 2 -15 4 -15 2 0 6 7 10 15 3 8 1 15 -4 15 -6 0 -10
-7 -10 -15z"/>
<path d="M10885 7500 c32 -34 104 -84 111 -77 2 2 -21 20 -51 41 -30 20 -55
40 -55 45 0 5 -8 12 -17 16 -11 4 -7 -6 12 -25z"/>
<path d="M10640 7510 c0 -5 6 -10 14 -10 7 0 19 -7 26 -15 7 -8 26 -15 42 -15
19 0 31 -6 36 -20 4 -11 32 -35 62 -54 58 -37 85 -39 35 -3 -17 12 -49 39 -71
59 -23 21 -48 38 -56 38 -9 0 -21 7 -28 15 -14 17 -60 21 -60 5z"/>
<path d="M10379 7499 c-10 -6 -7 -9 13 -9 15 0 29 4 32 8 7 11 -27 12 -45 1z"/>
<path d="M10940 7486 c0 -2 7 -7 16 -10 8 -3 12 -2 9 4 -6 10 -25 14 -25 6z"/>
<path d="M9700 7455 c0 -8 2 -15 4 -15 2 0 6 7 10 15 3 8 1 15 -4 15 -6 0 -10
-7 -10 -15z"/>
<path d="M10880 7463 c0 -4 14 -21 31 -39 l31 -32 -29 5 -28 5 33 -21 c19 -12
30 -26 26 -32 -4 -7 -1 -10 7 -7 8 3 13 12 11 21 -1 9 6 17 19 19 17 2 10 11
-40 46 -34 23 -61 39 -61 35z"/>
<path d="M10540 7325 c-32 -34 -19 -43 14 -10 14 14 26 28 26 30 0 12 -19 3
-40 -20z"/>
<path d="M10908 7311 c3 -19 -2 -36 -12 -46 -18 -19 -21 -35 -5 -35 5 0 7 5 4
10 -3 6 2 10 13 10 16 0 19 6 16 36 -1 20 -7 41 -12 46 -5 5 -7 -3 -4 -21z"/>
<path d="M10484 7307 c-4 -10 -2 -23 3 -28 14 -14 24 13 13 32 -7 11 -10 10
-16 -4z"/>
<path d="M10880 7300 c0 -5 5 -10 11 -10 5 0 7 5 4 10 -3 6 -8 10 -11 10 -2 0
-4 -4 -4 -10z"/>
<path d="M10770 7296 c0 -2 11 -11 25 -20 21 -14 29 -14 48 -4 l22 12 -25 7
c-28 8 -70 11 -70 5z"/>
<path d="M11860 7297 c0 -2 15 -16 33 -33 l32 -29 -29 33 c-28 30 -36 37 -36
29z"/>
<path d="M10660 7252 c0 -11 8 -22 20 -25 16 -4 19 -11 14 -37 -6 -26 -2 -37
27 -66 36 -37 60 -41 99 -19 14 8 37 14 53 15 15 0 27 5 27 10 0 15 -34 12
-80 -6 -40 -16 -42 -16 -64 5 -12 11 -27 21 -34 21 -6 0 -12 20 -14 46 -2 35
-9 50 -25 62 -21 13 -23 13 -23 -6z"/>
<path d="M10487 7254 c-4 -4 -7 -17 -7 -28 1 -19 1 -20 11 -3 11 19 8 43 -4
31z"/>
<path d="M10506 7214 c-4 -9 -4 -19 -1 -22 2 -3 7 3 11 12 4 9 4 19 1 22 -2 3
-7 -3 -11 -12z"/>
<path d="M11960 7183 c18 -24 35 -43 37 -43 7 0 -35 56 -54 71 -9 8 -2 -5 17
-28z"/>
<path d="M10647 7193 c-4 -3 -7 -11 -7 -17 0 -6 5 -5 12 2 6 6 9 14 7 17 -3 3
-9 2 -12 -2z"/>
<path d="M10422 7158 c-17 -17 -16 -20 19 -77 38 -60 62 -71 93 -42 l23 22 37
-32 c20 -18 36 -40 36 -50 0 -29 28 -30 56 -3 14 15 23 29 20 31 -3 3 -14 -5
-24 -17 -20 -25 -42 -20 -42 8 -1 9 -16 35 -35 56 l-35 39 -23 -21 c-25 -23
-47 -29 -47 -12 0 6 -7 10 -15 10 -17 0 -59 76 -50 90 8 14 1 12 -13 -2z"/>
<path d="M5176 7112 c-27 -20 -121 -86 -208 -147 l-159 -110 2 -845 c0 -465 3
-890 6 -945 3 -55 6 -154 8 -220 3 -145 3 -145 13 -145 5 0 9 6 10 13 7 53 19
81 53 115 21 22 36 42 34 46 -3 3 -2 4 2 1 9 -7 83 66 83 82 0 7 8 22 17 33
17 19 18 19 59 -24 30 -32 45 -41 56 -35 12 7 17 1 24 -24 7 -27 9 -21 13 43
l6 75 7 -55 c9 -64 10 -725 2 -756 -4 -14 -16 -24 -37 -27 -18 -4 -88 -18
-157 -32 -70 -15 -141 -24 -162 -22 -21 3 -38 1 -38 -3 0 -5 -13 -11 -30 -15
-16 -4 -32 -11 -36 -16 -3 -6 4 -8 18 -5 12 3 121 24 241 47 l217 42 0 1196
c1 658 3 1325 6 1484 3 158 4 287 2 286 -1 0 -25 -17 -52 -37z m-66 -419 l0
-58 -92 -60 c-50 -33 -95 -61 -99 -63 -5 -2 -9 21 -9 50 l0 54 98 67 c53 37
98 67 100 67 1 0 2 -26 2 -57z m0 -207 l0 -54 -94 -61 c-52 -34 -97 -61 -100
-61 -3 0 -6 24 -6 53 l0 53 93 61 c50 34 95 62 100 62 4 1 7 -23 7 -53z m-16
-270 c-50 -37 -175 -108 -181 -103 -3 4 -2 30 3 59 l9 52 90 56 90 56 3 -54
c2 -42 -1 -57 -14 -66z m16 -143 l0 -58 -48 -27 c-26 -15 -71 -41 -100 -58
l-53 -31 3 58 3 58 95 57 c52 32 96 58 97 58 2 0 3 -26 3 -57z m0 -207 l0 -55
-94 -55 c-52 -31 -97 -56 -98 -56 -2 0 -4 26 -4 57 l1 57 90 52 c50 29 93 52
98 53 4 1 7 -23 7 -53z m0 -214 l0 -59 -93 -51 c-51 -29 -96 -52 -100 -52 -4
0 -7 26 -7 58 l0 57 93 51 c50 29 95 52 100 53 4 1 7 -25 7 -57z m0 -210 l0
-58 -94 -52 c-51 -29 -96 -52 -100 -52 -3 0 -6 24 -6 54 l0 55 98 55 c53 31
98 56 100 56 1 0 2 -26 2 -58z m0 -222 l0 -60 -100 -50 -101 -51 3 63 3 63 90
47 c50 26 93 47 98 48 4 0 7 -27 7 -60z"/>
<path d="M10842 7088 c6 -18 38 -22 52 -8 8 9 6 11 -11 5 -14 -4 -23 -2 -23 4
0 6 -5 11 -11 11 -6 0 -9 -6 -7 -12z"/>
<path d="M10803 7073 c-16 -6 -17 -23 -1 -23 6 0 20 -7 30 -17 23 -20 23 -5 0
23 -9 12 -23 20 -29 17z"/>
<path d="M10246 7040 c-13 -32 -26 -30 -26 2 0 11 -4 16 -10 13 -19 -12 -10
-52 20 -80 17 -16 30 -35 30 -42 0 -7 9 -13 19 -13 27 0 38 -20 19 -34 -9 -6
-19 -26 -22 -44 -6 -26 -4 -32 8 -32 15 0 15 -2 0 -25 -9 -14 -15 -28 -12 -30
7 -8 68 6 68 15 0 4 19 8 41 8 45 1 53 6 63 39 6 19 4 21 -23 18 -24 -3 -29
-1 -24 12 5 12 3 14 -7 8 -8 -5 -11 -4 -6 3 9 15 -52 82 -75 82 -12 0 -18 7
-17 18 3 40 -2 54 -18 48 -13 -5 -16 0 -12 29 5 43 1 44 -16 5z m101 -180 c-3
-28 0 -51 5 -52 6 -2 -1 -9 -16 -16 -24 -11 -38 0 -16 13 14 9 12 21 -6 39
-14 14 -13 18 3 41 27 37 34 30 30 -25z m76 -47 c-7 -2 -21 -2 -30 0 -10 3 -4
5 12 5 17 0 24 -2 18 -5z"/>
<path d="M10290 7041 c0 -6 4 -13 10 -16 6 -3 7 1 4 9 -7 18 -14 21 -14 7z"/>
<path d="M12106 6985 c25 -38 49 -72 52 -75 15 -14 -46 85 -70 113 -15 17 -7
1 18 -38z"/>
<path d="M10794 7015 c-4 -9 -2 -21 5 -28 6 -6 11 -20 11 -31 0 -15 3 -17 11
-9 12 12 4 69 -12 79 -5 3 -12 -2 -15 -11z"/>
<path d="M10566 6994 c-14 -14 -14 -19 7 -55 12 -21 25 -39 30 -39 15 0 6 41
-13 62 -15 16 -17 25 -9 35 16 18 4 16 -15 -3z"/>
<path d="M10157 6942 c-15 -16 -27 -33 -27 -40 0 -7 -8 -12 -17 -13 -10 0 -25
-2 -34 -4 -9 -1 -75 0 -147 4 -104 5 -128 3 -120 -6 8 -10 54 -13 168 -13 86
0 160 -3 163 -7 4 -3 2 -12 -4 -19 -13 -16 -3 -34 18 -34 30 0 83 24 83 37 0
7 -7 10 -15 7 -8 -4 -26 -3 -39 0 -43 11 -41 96 2 96 12 0 13 -3 4 -12 -7 -7
-12 -23 -12 -37 0 -22 5 -26 30 -26 17 0 30 4 30 8 0 15 -25 34 -39 29 -10 -3
-11 0 -2 16 8 15 7 23 -3 31 -9 8 -19 4 -39 -17z"/>
<path d="M10734 6925 c-19 -14 -18 -14 4 -15 13 0 22 6 22 15 0 19 -1 19 -26
0z"/>
<path d="M10468 6883 c17 -2 47 -2 65 0 17 2 3 4 -33 4 -36 0 -50 -2 -32 -4z"/>
<path d="M10550 6855 c-19 -23 -8 -25 14 -4 11 11 15 19 9 19 -6 0 -16 -7 -23
-15z"/>
<path d="M10509 6833 c-7 -19 -7 -29 0 -31 16 -5 13 -32 -3 -32 -8 0 -25 -14
-37 -32 -13 -17 -18 -28 -12 -25 7 4 14 3 18 -3 3 -5 1 -10 -6 -10 -6 0 -17
-7 -23 -16 -10 -13 -16 -13 -54 4 -23 10 -39 23 -34 28 4 4 -1 2 -10 -5 -10
-7 -18 -15 -18 -17 0 -6 95 -66 107 -68 7 -1 16 -6 20 -11 5 -4 2 -5 -6 0 -11
6 -13 4 -8 -9 4 -10 7 -34 7 -54 0 -34 1 -35 15 -16 15 18 15 18 13 -6 -3 -24
-6 -25 -88 -28 -47 -1 -92 -5 -100 -9 -8 -4 -19 -7 -25 -8 -17 -1 -18 -14 -4
-47 9 -23 10 -40 2 -69 -9 -33 -7 -46 10 -80 17 -35 24 -40 46 -36 18 4 33 -1
48 -15 20 -19 23 -19 38 -4 9 9 29 16 44 16 18 0 37 11 57 32 16 18 19 24 6
14 -29 -25 -41 -12 -15 17 15 15 20 30 16 49 -5 28 29 98 48 98 5 0 9 11 9 24
0 13 9 35 20 49 l20 25 -22 19 c-13 10 -24 25 -26 33 -2 7 -11 19 -20 26 -13
10 -14 15 -5 25 14 14 -2 53 -17 44 -5 -3 -19 -1 -29 5 -25 13 -17 38 15 51
23 8 35 49 14 49 -6 0 -6 9 0 25 5 14 7 25 5 25 -3 0 -10 -12 -16 -27z m-213
-467 c-3 -14 -11 -26 -17 -26 -7 0 -9 9 -5 23 3 12 6 42 7 67 l1 45 10 -42 c6
-23 8 -53 4 -67z m199 -36 c3 -5 -1 -10 -10 -10 -9 0 -13 5 -10 10 3 6 8 10
10 10 2 0 7 -4 10 -10z m-185 -47 c0 -20 -16 -8 -23 17 -4 17 -3 19 9 9 8 -6
14 -18 14 -26z m97 -19 c-3 -3 -12 -4 -19 -1 -8 3 -5 6 6 6 11 1 17 -2 13 -5z"/>
<path d="M10467 6783 c-4 -3 -7 -11 -7 -17 0 -6 5 -5 12 2 6 6 9 14 7 17 -3 3
-9 2 -12 -2z"/>
<path d="M9940 6730 c12 -16 24 -30 26 -30 3 0 -4 14 -16 30 -12 17 -24 30
-26 30 -3 0 4 -13 16 -30z"/>
<path d="M10403 6720 c1 -13 8 -20 22 -20 15 0 17 2 6 9 -7 5 -10 14 -7 20 4
6 1 11 -8 11 -9 0 -14 -8 -13 -20z"/>
<path d="M12281 6631 l51 -112 -23 -25 c-19 -20 -21 -28 -11 -48 8 -19 8 -27
-2 -35 -10 -8 -21 8 -51 74 -21 47 -41 88 -45 90 -4 3 14 -44 40 -103 244
-547 292 -1101 144 -1682 -62 -244 -190 -525 -348 -762 l-18 -27 28 5 c15 3
32 8 37 11 22 13 151 224 215 350 149 295 229 589 253 925 30 435 -53 889
-237 1293 -36 76 -69 144 -74 149 -6 6 13 -41 41 -103z"/>
<path d="M11584 6718 c-4 -7 -4 -10 1 -6 4 4 17 1 29 -7 30 -22 45 -17 17 5
-27 23 -37 25 -47 8z"/>
<path d="M11353 6684 c-15 -14 -21 -23 -13 -20 8 3 23 9 33 12 9 4 17 13 17
20 0 19 -5 18 -37 -12z"/>
<path d="M12281 6695 c0 -5 6 -21 14 -35 8 -14 14 -20 14 -15 0 6 -6 21 -14
35 -8 14 -14 21 -14 15z"/>
<path d="M11237 6663 c-14 -13 -6 -25 8 -13 13 11 21 7 49 -26 34 -38 35 -38
53 -20 17 18 17 18 -4 12 -17 -5 -27 0 -44 24 -21 28 -47 38 -62 23z"/>
<path d="M11380 6631 c0 -5 14 -14 30 -20 17 -5 30 -8 30 -6 0 3 -13 11 -30
20 -16 9 -30 11 -30 6z"/>
<path d="M10810 6614 c0 -8 4 -13 8 -10 5 3 22 -8 37 -24 16 -17 32 -30 37
-30 4 0 37 -20 73 -45 36 -24 65 -41 65 -37 0 15 -83 81 -109 87 -15 3 -43 21
-61 40 -37 38 -50 43 -50 19z"/>
<path d="M11226 6576 c-4 -21 -5 -40 -2 -43 7 -8 18 42 14 64 -3 11 -7 3 -12
-21z"/>
<path d="M11672 6584 c10 -10 20 -16 22 -13 3 3 -5 11 -17 18 -21 13 -21 12
-5 -5z"/>
<path d="M11460 6586 c0 -3 14 -14 30 -26 17 -12 30 -17 30 -11 0 6 -13 17
-30 26 -16 9 -30 13 -30 11z"/>
<path d="M10696 6549 c-14 -17 -24 -20 -51 -15 -23 5 -38 2 -49 -9 -20 -20
-21 -32 -2 -16 9 8 22 8 38 2 21 -8 32 -5 62 17 l37 26 28 -31 c16 -18 61 -52
100 -77 39 -25 76 -54 82 -65 17 -26 42 -5 27 23 -9 17 -7 18 16 12 21 -5 24
-3 19 10 -3 9 -13 14 -25 11 -11 -3 -30 5 -47 19 -16 13 -33 24 -37 24 -5 0 0
-7 10 -15 29 -22 11 -18 -42 9 -26 13 -63 40 -81 60 -40 41 -59 45 -85 15z"/>
<path d="M10060 6525 c0 -5 5 -17 10 -25 5 -8 10 -10 10 -5 0 6 -5 17 -10 25
-5 8 -10 11 -10 5z"/>
<path d="M9998 6395 c-15 -323 -140 -574 -476 -957 -52 -59 -271 -256 -383
-344 -61 -49 -121 -97 -133 -107 -20 -18 -20 -18 7 -1 16 10 43 18 60 19 18 1
46 8 62 14 116 47 449 313 502 402 8 14 28 34 44 45 26 16 139 156 139 171 0
2 9 17 19 32 11 14 22 48 26 75 6 38 16 57 41 80 24 23 40 54 63 123 32 98 40
168 45 387 4 178 -9 227 -16 61z"/>
<path d="M10590 6480 c0 -6 -11 -23 -25 -38 -14 -15 -25 -31 -25 -37 1 -16 60
54 60 70 0 8 -2 15 -5 15 -3 0 -5 -5 -5 -10z"/>
<path d="M11760 6482 c0 -5 7 -13 16 -16 10 -4 14 -1 12 6 -5 15 -28 23 -28
10z"/>
<path d="M11162 6450 c-15 -24 -15 -30 -2 -30 6 0 10 7 10 16 0 12 7 14 28 10
15 -3 38 1 52 9 24 14 23 14 -25 15 -39 0 -53 -4 -63 -20z"/>
<path d="M11712 6440 c0 -14 2 -19 5 -12 2 6 2 18 0 25 -3 6 -5 1 -5 -13z"/>
<path d="M11950 6445 c0 -5 5 -17 10 -25 5 -8 10 -10 10 -5 0 6 -5 17 -10 25
-5 8 -10 11 -10 5z"/>
<path d="M10746 6422 c-8 -13 9 -65 22 -70 7 -2 12 3 12 12 0 9 -4 16 -9 16
-5 0 -11 9 -14 21 -4 15 -2 19 9 15 8 -3 14 -1 14 4 0 12 -27 13 -34 2z"/>
<path d="M11245 6420 c-6 -10 19 -65 35 -75 13 -8 1 25 -17 47 -8 9 -12 22 -8
27 3 6 4 11 1 11 -3 0 -8 -4 -11 -10z"/>
<path d="M11070 6385 c13 -14 31 -25 39 -25 11 1 6 9 -14 25 -39 32 -55 32
-25 0z"/>
<path d="M9851 6298 c-48 -148 -138 -302 -276 -467 -549 -659 -1622 -1221
-3160 -1655 -1104 -311 -1883 -399 -2530 -286 -93 16 -210 47 -347 90 -45 14
-32 3 29 -25 88 -40 266 -91 383 -109 58 -9 119 -19 135 -22 85 -14 429 -23
592 -14 357 19 652 62 1088 159 50 11 152 29 225 41 146 22 195 34 430 105 85
25 202 60 259 76 57 16 109 33 115 37 16 10 136 52 166 58 42 8 317 99 445
147 346 130 739 303 728 320 -4 6 0 8 11 4 9 -4 15 -3 12 2 -6 10 42 33 54 26
5 -3 14 1 22 8 7 8 30 20 51 26 20 7 37 16 37 21 0 4 66 45 148 91 303 170
520 316 765 518 121 99 320 296 355 351 9 14 30 43 47 65 49 63 142 216 174
287 36 79 74 194 69 209 -2 6 -14 -22 -27 -63z"/>
<path d="M11154 6345 c-3 -8 -3 -19 1 -26 4 -6 -4 -3 -19 6 -33 22 -34 6 -2
-24 l24 -23 7 34 c4 18 13 36 19 40 7 5 4 8 -7 8 -10 0 -20 -7 -23 -15z"/>
<path d="M10882 6318 c2 -6 18 -16 37 -24 29 -12 32 -12 29 3 -2 10 -17 20
-36 24 -20 4 -32 3 -30 -3z"/>
<path d="M11296 6311 c6 -6 20 -13 32 -16 12 -2 27 -7 32 -10 6 -4 18 -1 26 6
12 9 18 8 35 -7 20 -18 22 -18 34 -1 6 9 22 17 34 17 11 0 21 5 21 11 0 7 -8
9 -22 4 -20 -7 -36 -8 -93 -6 -8 1 -21 0 -27 -1 -7 0 -29 2 -48 7 -26 5 -32 4
-24 -4z"/>
<path d="M10670 6243 c-48 -8 -95 -26 -130 -49 -22 -16 -49 -24 -75 -24 -36 0
-43 -4 -59 -34 -10 -19 -29 -45 -42 -57 -15 -14 -24 -34 -24 -54 l0 -31 58 56
c96 94 220 165 337 193 25 6 -29 6 -65 0z"/>
<path d="M10854 6185 c-6 -25 9 -55 29 -55 5 0 2 9 -7 19 -11 13 -15 27 -11
40 3 12 4 21 1 21 -3 0 -8 -11 -12 -25z"/>
<path d="M8623 6130 c0 -25 2 -35 4 -22 2 12 2 32 0 45 -2 12 -4 2 -4 -23z"/>
<path d="M11152 6080 c0 -19 2 -27 5 -17 2 9 2 25 0 35 -3 9 -5 1 -5 -18z"/>
<path d="M10940 6093 c14 -3 32 -11 40 -18 18 -16 107 -55 123 -54 7 0 -8 9
-31 20 -24 10 -55 28 -69 39 -15 11 -39 19 -57 19 -27 -2 -28 -2 -6 -6z"/>
<path d="M11860 6060 c0 -5 5 -10 10 -10 6 0 10 5 10 10 0 6 -4 10 -10 10 -5
0 -10 -4 -10 -10z"/>
<path d="M10112 6020 c0 -14 2 -19 5 -12 2 6 2 18 0 25 -3 6 -5 1 -5 -13z"/>
<path d="M11490 6013 c0 -8 50 -93 54 -93 2 0 2 10 -1 21 -5 18 -3 20 16 14
17 -5 21 -2 21 14 0 12 -5 21 -11 21 -5 0 -7 -5 -3 -12 5 -7 2 -9 -9 -5 -9 3
-18 1 -20 -6 -2 -7 -11 3 -21 21 -16 30 -26 40 -26 25z"/>
<path d="M11930 5981 c23 -34 59 -49 70 -31 5 7 12 3 23 -13 27 -42 47 -57 75
-57 48 0 101 -110 123 -253 6 -40 15 -81 19 -92 13 -33 -1 73 -21 170 -23 107
-74 195 -113 195 -28 0 -72 33 -81 61 -5 16 -10 18 -20 9 -19 -15 -52 -4 -60
21 -4 10 -13 19 -21 19 -12 0 -11 -6 6 -29z"/>
<path d="M8623 5835 c0 -22 2 -30 4 -17 2 12 2 30 0 40 -3 9 -5 -1 -4 -23z"/>
<path d="M10047 5789 c-85 -237 -244 -479 -465 -703 -492 -500 -1179 -890
-2102 -1196 -1023 -339 -2014 -474 -3120 -425 -229 10 67 -21 430 -45 95 -6
99 -7 40 -10 -64 -3 -64 -3 35 -12 126 -12 600 5 886 32 1080 101 2175 446
3025 953 381 227 762 544 955 794 76 99 189 264 189 278 0 3 24 59 54 123 51
110 112 279 104 287 -2 2 -16 -32 -31 -76z"/>
<path d="M11556 5857 c3 -10 9 -15 12 -12 3 3 0 11 -7 18 -10 9 -11 8 -5 -6z"/>
<path d="M11650 5843 c0 -5 11 -20 25 -33 14 -13 25 -19 25 -13 0 5 -11 20
-25 33 -14 13 -25 19 -25 13z"/>
<path d="M12051 5793 c7 -12 15 -20 18 -17 3 2 -3 12 -13 22 -17 16 -18 16 -5
-5z"/>
<path d="M11615 5706 c10 -14 19 -26 22 -26 7 0 -17 39 -28 46 -6 3 -3 -5 6
-20z"/>
<path d="M11737 5677 c3 -15 14 -32 24 -38 27 -14 24 4 -5 38 l-24 28 5 -28z"/>
<path d="M8623 5650 c0 -25 2 -35 4 -22 2 12 2 32 0 45 -2 12 -4 2 -4 -23z"/>
<path d="M11664 5639 c2 -19 11 -51 20 -70 24 -50 66 -116 66 -103 0 6 -11 28
-25 48 -14 20 -32 60 -41 89 -22 73 -25 77 -20 36z"/>
<path d="M11942 5493 c-21 -20 -56 -49 -80 -64 -24 -15 -39 -30 -34 -33 11 -6
162 112 162 126 0 15 -12 8 -48 -29z"/>
<path d="M11702 5477 c13 -20 39 -67 58 -104 19 -36 41 -68 47 -70 16 -6 -64
139 -100 180 l-27 32 22 -38z"/>
<path d="M8780 4841 c-41 -30 -374 -213 -530 -291 -177 -89 -362 -174 -535
-247 -71 -30 -131 -56 -133 -58 -1 -1 11 -2 28 -1 16 1 30 6 30 11 0 7 3 7 8
0 9 -13 32 -18 32 -6 0 13 54 7 66 -8 6 -8 16 -11 22 -7 6 4 21 2 32 -4 16 -9
25 -8 36 1 11 9 18 8 31 -2 15 -12 16 -12 8 1 -7 13 -6 13 7 2 10 -8 27 -10
44 -6 16 3 47 10 69 14 95 20 124 31 322 125 50 24 109 59 130 78 21 18 71 55
112 82 77 50 161 130 161 153 0 7 4 11 8 8 4 -2 13 4 20 14 7 12 8 21 2 25
-10 6 6 44 24 56 5 4 -1 10 -14 14 -21 7 -20 8 14 31 20 14 36 27 36 29 0 7
-3 6 -30 -14z"/>
<path d="M11651 4674 c0 -11 3 -14 6 -6 3 7 2 16 -1 19 -3 4 -6 -2 -5 -13z"/>
<path d="M6885 4585 c-17 -6 -40 -16 -52 -23 -11 -6 -63 -23 -115 -37 -51 -13
-124 -36 -163 -49 -38 -14 -80 -26 -93 -26 -13 0 -116 -29 -230 -65 -177 -56
-378 -114 -459 -132 -13 -3 -23 -10 -23 -15 0 -5 -4 -7 -9 -3 -6 3 -90 -15
-188 -39 -424 -107 -948 -192 -1310 -213 -62 -3 -113 -9 -113 -13 0 -4 11 -13
25 -20 14 -7 25 -17 25 -22 0 -4 12 -8 26 -8 14 0 23 -4 19 -10 -4 -6 24 -10
77 -10 155 0 553 20 598 30 83 19 114 23 230 26 158 5 359 32 590 79 36 7 115
23 175 35 143 29 494 118 712 180 189 55 589 186 613 202 12 8 11 8 -3 4 -49
-16 -70 -18 -64 -9 4 5 -3 19 -13 31 -11 12 -20 26 -20 32 0 6 -7 18 -15 26
-8 9 -15 12 -15 9 0 -4 -8 3 -18 15 -17 21 -19 22 -36 5 -17 -17 -17 -17 -14
1 3 16 -5 20 -52 24 -30 3 -69 0 -85 -5z"/>
<path d="M11690 4125 c-13 -14 -21 -27 -18 -31 3 -3 16 9 28 25 26 37 22 40
-10 6z"/>
<path d="M11367 4088 c-4 -14 -27 -47 -52 -72 -53 -55 -61 -75 -9 -25 43 41
77 95 72 111 -3 7 -8 1 -11 -14z"/>
<path d="M4053 3963 c15 -2 37 -2 50 0 12 2 0 4 -28 4 -27 0 -38 -2 -22 -4z"/>
<path d="M11230 3925 c-8 -9 -8 -15 -2 -15 12 0 26 19 19 26 -2 2 -10 -2 -17
-11z"/>
<path d="M6388 3923 c7 -3 16 -2 19 1 4 3 -2 6 -13 5 -11 0 -14 -3 -6 -6z"/>
<path d="M6395 3864 c-107 -30 -580 -135 -780 -173 -332 -63 -704 -115 -1015
-143 -86 -8 113 -29 313 -34 117 -2 226 -6 242 -9 17 -2 53 -4 80 -4 28 1 79
1 115 0 133 -2 542 39 690 68 37 7 39 9 15 10 -23 1 -27 3 -15 11 8 5 24 10
35 10 11 0 69 25 130 55 106 53 175 104 175 129 0 6 9 18 20 26 11 8 20 20 20
27 0 6 9 15 20 18 11 3 20 11 20 16 0 11 -2 11 -65 -7z m-382 -291 c-7 -2 -19
-2 -25 0 -7 3 -2 5 12 5 14 0 19 -2 13 -5z"/>
<path d="M11094 3794 c-18 -14 -18 -15 4 -4 12 6 22 13 22 15 0 8 -5 6 -26
-11z"/>
<path d="M10963 3729 c-18 -5 -35 -14 -38 -19 -9 -14 4 -11 50 10 43 20 39 24
-12 9z"/>
<path d="M9895 2720 c-88 -16 -162 -47 -249 -104 -103 -69 -187 -158 -230
-248 -18 -38 -35 -65 -38 -62 -13 12 -38 -141 -38 -228 0 -112 26 -215 76
-305 48 -86 75 -115 153 -168 195 -129 472 -158 794 -84 48 11 87 23 87 27 0
3 -7 13 -15 22 -14 16 -21 15 -98 -2 -118 -28 -357 -35 -464 -15 -122 23 -241
83 -313 156 -55 57 -130 183 -130 220 0 9 11 -10 24 -42 74 -179 224 -288 451
-328 78 -13 310 -7 385 11 123 29 116 25 113 72 l-2 43 8 -43 c4 -23 15 -50
24 -60 16 -15 17 -10 17 78 l-1 95 -27 -31 c-47 -55 -195 -90 -346 -81 -105 6
-160 23 -233 73 -47 32 -124 125 -123 149 1 6 6 1 13 -11 46 -78 149 -162 166
-135 4 7 16 9 27 5 10 -3 -10 13 -46 37 -104 70 -149 160 -157 314 -11 189 54
318 193 386 73 35 230 39 383 9 68 -14 116 -19 122 -13 10 10 24 84 33 171 l5
52 -24 -17 c-13 -10 -26 -30 -29 -45 -4 -16 -8 -41 -11 -57 l-6 -28 -62 15
c-41 11 -110 16 -202 16 -124 0 -147 -2 -198 -23 -146 -58 -215 -157 -263
-376 -6 -28 -7 -29 -15 -8 -7 20 -15 22 -91 22 -108 1 -118 2 -118 14 0 6 -3
7 -7 4 -4 -4 -10 -51 -13 -105 l-7 -97 -1 100 c-3 159 40 285 136 397 96 113
210 173 382 199 84 13 298 7 398 -12 58 -10 122 -6 108 8 -28 28 -433 53 -541
33z m-468 -762 c-3 -8 -6 -5 -6 6 -1 11 2 17 5 13 3 -3 4 -12 1 -19z"/>
<path d="M10997 2711 c-38 -10 -72 -23 -76 -29 -3 -6 -28 -20 -54 -31 -26 -11
-69 -41 -96 -66 -26 -25 -53 -45 -59 -45 -19 0 -82 -83 -118 -154 -35 -71 -46
-77 -18 -10 9 22 11 34 5 29 -5 -6 -21 -39 -34 -75 -98 -263 -32 -563 155
-707 122 -95 276 -144 453 -145 285 -2 486 98 613 307 55 91 77 183 77 330 0
151 -15 213 -75 315 -46 78 -136 174 -157 166 -8 -3 -11 -2 -8 4 7 11 -25 29
-42 23 -6 -2 -15 1 -19 8 -5 8 -3 9 6 4 8 -5 11 -4 7 3 -12 18 -151 71 -218
81 -99 17 -264 13 -342 -8z m351 -27 c165 -34 287 -116 363 -245 54 -91 77
-153 83 -230 3 -35 3 -54 0 -41 -6 26 -20 27 -96 7 -31 -8 -72 -15 -92 -17
-38 -2 -36 2 -49 -88 -3 -14 -5 9 -6 51 -3 166 -44 273 -140 362 -72 67 -127
87 -231 87 -135 0 -233 -67 -295 -202 -33 -72 -54 -174 -56 -263 0 -58 -2 -66
-11 -47 -12 23 -13 24 -148 26 l-75 1 -6 -35 c-4 -23 -7 -5 -8 51 -3 219 115
435 288 528 128 68 313 89 479 55z m-118 -200 c74 -22 146 -95 185 -189 24
-60 29 -87 33 -186 4 -128 -9 -196 -54 -278 -13 -24 -22 -47 -19 -51 3 -5 0
-12 -6 -16 -8 -5 -9 -3 -4 7 5 8 -3 4 -16 -7 -13 -12 -40 -31 -59 -43 -19 -11
-30 -21 -24 -21 6 0 27 11 47 24 19 13 43 26 53 28 24 4 64 66 98 148 21 52
25 57 20 27 -8 -49 13 -47 39 3 l18 35 -6 -35 c-17 -105 -106 -224 -200 -271
-73 -35 -197 -34 -275 3 -81 38 -164 128 -184 198 -7 25 -7 25 11 -2 19 -30
33 -36 33 -15 0 6 11 -1 24 -18 20 -25 19 -18 -10 40 -80 165 -65 407 34 538
71 93 145 116 262 81z m-505 -762 c126 -137 332 -198 560 -168 159 21 260 64
360 155 l50 45 -40 -43 c-246 -268 -814 -227 -992 70 -18 30 -35 63 -38 74 -3
11 5 -1 19 -27 14 -25 50 -73 81 -106z"/>
<path d="M11295 2661 c11 -4 20 -12 21 -17 1 -13 14 -45 25 -68 8 -14 7 -16
-3 -11 -20 12 2 -7 45 -39 28 -20 37 -23 37 -12 0 17 28 36 80 52 27 8 41 8
63 -3 43 -22 31 -5 -20 28 -27 16 -75 38 -108 48 -63 19 -176 37 -140 22z"/>
<path d="M10858 2594 c-102 -52 -205 -183 -232 -294 l-7 -25 15 26 c21 36 127
75 224 81 7 1 25 20 40 42 39 57 47 75 23 47 -13 -15 -21 -18 -22 -10 -1 20
-6 48 -17 89 -7 31 -6 37 17 52 37 26 14 21 -41 -8z"/>
<path d="M10990 1767 c14 -16 34 -33 45 -39 21 -11 20 -10 -35 37 l-35 30 25
-28z"/>
<path d="M12285 2724 c-11 -2 -43 -9 -71 -15 -34 -6 -77 -27 -125 -60 -99 -68
-128 -96 -151 -146 -22 -49 -33 -56 -24 -15 12 54 -13 -4 -30 -68 -47 -185 70
-321 373 -435 77 -30 159 -79 173 -106 6 -10 10 -39 10 -64 0 -38 -5 -52 -30
-76 -27 -27 -27 -30 -7 -24 28 9 87 65 87 83 0 12 3 12 15 2 8 -7 22 -10 30
-6 23 9 19 -24 -9 -65 -14 -21 -46 -47 -73 -60 -44 -22 -59 -24 -183 -23 -177
2 -279 27 -328 80 -50 53 -62 36 -62 -86 l0 -98 33 -11 c93 -29 162 -36 362
-36 202 0 213 1 282 27 71 26 172 87 205 125 33 36 70 135 75 197 9 103 -34
215 -103 276 -25 21 -26 22 -10 3 11 -13 14 -23 8 -23 -6 0 -14 5 -17 10 -3 6
-11 10 -17 10 -6 0 2 -17 18 -37 l28 -38 -37 32 c-49 42 -87 61 -227 113 -63
23 -143 56 -177 74 -34 18 -61 28 -60 22 1 -8 -35 -11 -116 -11 -73 0 -117 -4
-117 -10 0 -23 52 -84 96 -114 26 -17 95 -49 153 -72 91 -35 186 -80 141 -66
-51 16 -255 100 -278 114 -91 56 -155 162 -155 255 2 211 160 317 473 318 63
0 160 -7 214 -15 55 -8 102 -13 104 -10 3 3 -1 6 -9 6 -8 1 0 4 16 8 25 6 17
9 -50 20 -81 13 -393 24 -430 15z m205 -760 c8 -9 -3 -4 -25 10 -51 35 -57 42
-19 23 17 -9 37 -23 44 -33z m209 -307 c-56 -52 -154 -91 -268 -108 -97 -14
-285 -7 -396 15 -60 12 -73 12 -95 -1 l-25 -15 23 20 c12 11 23 28 23 39 1 15
2 15 6 2 8 -33 231 -65 382 -56 159 10 273 48 351 116 52 45 52 36 -1 -12z"/>
<path d="M12902 2714 c3 -3 122 -6 264 -6 190 -1 230 -3 149 -8 -74 -4 -4 -7
211 -8 275 -2 323 0 334 13 11 13 -43 15 -475 15 -269 0 -486 -3 -483 -6z"/>
<path d="M13863 2689 c-18 -21 -23 -40 -23 -83 l0 -56 -170 0 -170 0 -1 -127
c-1 -80 -4 -119 -9 -103 -4 14 -8 39 -9 57 l-1 32 -35 -15 c-19 -8 -35 -11
-35 -7 0 5 -4 3 -8 -3 -11 -18 -102 -28 -104 -12 -6 53 -16 -222 -17 -479 l-1
-313 104 0 c101 0 105 1 109 23 3 16 5 13 6 -10 l1 -33 -115 0 -115 0 0 495 0
495 -162 0 c-154 0 -162 -1 -192 -24 l-31 -23 3 89 c2 52 7 86 13 82 5 -3 6
-10 3 -16 -4 -7 -2 -8 4 -4 8 5 12 -5 12 -31 0 -28 -3 -34 -10 -23 -7 11 -10
5 -10 -23 0 -65 25 -39 28 29 3 57 1 61 -28 83 -51 37 -61 19 -58 -103 l3
-101 150 -6 c83 -4 156 -7 163 -8 9 -1 12 -104 12 -480 l0 -479 31 -6 c41 -8
277 -8 318 0 l31 7 0 474 c-1 262 1 478 4 480 3 3 78 8 167 11 109 3 162 9
165 17 3 6 3 59 2 116 l-3 105 -22 -27z m-603 -1132 c0 -2 -10 -12 -22 -23
l-23 -19 19 23 c18 21 26 27 26 19z"/>
<path d="M4700 2495 c-1 -121 -3 -345 -6 -497 l-6 -278 29 0 28 0 -3 477 c-2
460 -3 479 -22 498 -20 19 -20 18 -20 -200z"/>
<path d="M8520 2407 c0 -167 -3 -307 -7 -310 -4 -4 -26 14 -51 40 -44 48 -44
48 8 -20 28 -37 65 -89 82 -115 17 -26 28 -39 24 -29 -3 10 -6 35 -7 55 0 28
-2 32 -8 17 -15 -37 -21 73 -21 366 0 181 -4 290 -10 294 -7 4 -10 -98 -10
-298z"/>
<path d="M8844 2689 c-18 -20 -19 -47 -22 -571 -4 -519 -3 -551 14 -571 10
-12 12 -16 4 -9 -22 19 -306 17 -317 -3 -7 -11 -23 2 -71 60 -124 148 -208
257 -137 175 22 -25 52 -57 66 -72 15 -15 25 -29 23 -31 -2 -2 4 -12 15 -21
11 -10 22 -13 25 -8 3 6 -31 55 -76 110 -120 144 -273 333 -351 434 -37 49
-70 88 -72 88 -3 0 0 -11 5 -25 19 -49 -1 -24 -32 40 -17 36 -35 68 -39 71 -5
3 -9 -171 -9 -389 0 -384 1 -395 21 -421 15 -19 16 -24 5 -20 -9 3 -16 10 -16
15 0 5 -55 9 -122 9 -99 0 -125 -3 -140 -17 -17 -15 -18 -15 -18 12 0 20 4 26
15 21 13 -5 15 14 14 137 0 78 -4 165 -9 192 l-7 50 -4 -70 -3 -70 -6 85 c-4
57 -7 7 -8 -153 l-1 -237 162 2 162 3 3 343 c1 188 6 342 10 341 4 0 41 -41
82 -92 41 -51 120 -147 175 -215 55 -67 115 -142 133 -165 19 -23 68 -81 110
-130 l77 -87 180 2 180 3 2 603 c2 331 1 602 -1 602 -1 0 -11 -9 -22 -21z
m-839 -508 c3 -5 1 -13 -5 -16 -6 -4 -9 -2 -8 4 2 5 -6 17 -17 26 -20 16 -20
16 2 5 12 -5 24 -14 28 -19z m-398 -483 c-2 -18 -4 -6 -4 27 0 33 2 48 4 33 2
-15 2 -42 0 -60z"/>
<path d="M7434 2678 c-5 -7 -7 -38 -4 -68 4 -46 6 -51 13 -30 l9 25 8 -25 c6
-18 8 -5 8 45 0 39 -2 62 -5 52 -2 -9 -9 -15 -14 -11 -5 3 -7 10 -4 15 9 14
-1 11 -11 -3z"/>
<path d="M12776 2661 c-11 -12 -21 -42 -24 -72 -4 -46 -7 -50 -27 -45 -58 15
-169 26 -261 26 -106 0 -171 -15 -207 -48 -65 -59 -64 -176 2 -211 17 -9 18
-8 13 12 -5 20 -4 21 12 7 15 -12 15 -9 -3 20 -41 67 -18 119 62 141 54 15
214 6 331 -18 85 -17 88 -17 101 0 13 18 31 173 23 197 -2 7 -11 4 -22 -9z"/>
<path d="M2761 2594 c-6 -41 -11 -93 -11 -116 l0 -40 -38 34 c-34 31 -49 36
-133 49 -52 8 -157 14 -234 13 -119 -1 -148 -4 -197 -23 -70 -27 -129 -67
-159 -106 -13 -16 -17 -24 -8 -18 11 9 18 10 27 1 8 -8 21 -3 49 19 21 17 49
35 63 42 l25 12 -25 -18 c-56 -40 -108 -95 -133 -141 -87 -160 -68 -389 42
-515 29 -32 126 -87 153 -87 7 1 -14 14 -47 29 -33 15 -69 38 -80 51 -11 13
-15 20 -8 17 14 -9 28 9 14 17 -5 4 -17 29 -26 56 -44 134 -38 279 17 383 47
87 93 131 181 173 77 36 79 37 200 36 79 -1 159 -8 227 -22 123 -23 123 -24
114 -8 -5 8 -2 9 9 5 14 -5 17 0 17 25 0 17 5 60 11 96 11 62 11 65 -14 87
l-25 24 -11 -75z"/>
<path d="M3235 2646 c-17 -7 -37 -21 -45 -31 -11 -13 -1 -11 40 10 30 15 57
29 59 31 10 9 -26 2 -54 -10z"/>
<path d="M12958 2653 c7 -3 16 -2 19 1 4 3 -2 6 -13 5 -11 0 -14 -3 -6 -6z"/>
<path d="M13633 2653 c37 -2 97 -2 135 0 37 2 6 3 -68 3 -74 0 -105 -1 -67 -3z"/>
<path d="M12097 2595 c-20 -14 -37 -28 -37 -31 0 -2 18 8 40 22 35 23 47 34
37 34 -1 0 -19 -11 -40 -25z"/>
<path d="M13810 2591 c0 -12 -8 -21 -22 -24 -20 -4 -19 -4 5 -6 23 -1 27 3 27
24 0 14 -2 25 -5 25 -3 0 -5 -9 -5 -19z"/>
<path d="M3084 2527 c-35 -35 -64 -69 -64 -76 0 -8 15 6 34 31 19 25 52 59 73
76 21 17 34 31 30 32 -4 0 -37 -28 -73 -63z"/>
<path d="M3443 2552 c-65 -23 -114 -61 -153 -117 -16 -24 -30 -45 -30 -48 0
-2 19 13 42 35 23 21 46 37 52 36 6 -1 22 4 36 11 18 9 15 5 -10 -17 -19 -16
-39 -27 -44 -24 -5 3 -6 0 -2 -7 4 -6 -2 -23 -13 -37 -55 -70 -89 -241 -71
-357 14 -96 44 -185 75 -222 14 -16 22 -23 19 -14 -3 10 -1 20 5 23 6 4 2 27
-11 64 -26 73 -35 221 -19 303 14 69 50 157 81 196 54 70 188 136 241 119 8
-2 26 -7 41 -10 34 -8 148 -106 164 -143 l12 -28 1 28 c1 15 -3 27 -9 27 -5 0
-7 6 -4 14 9 25 -78 119 -139 150 -75 38 -186 46 -264 18z"/>
<path d="M6850 2543 c0 -4 9 -16 20 -28 17 -18 20 -37 22 -138 2 -102 0 -119
-18 -139 -19 -23 -19 -23 1 -7 11 9 26 14 33 12 9 -4 12 22 12 110 l0 114 68
6 c37 4 158 7 270 7 111 0 202 2 202 5 0 2 -12 16 -26 31 l-27 26 -278 3
c-154 2 -279 1 -279 -2z"/>
<path d="M5610 2521 c0 -6 9 -16 20 -23 19 -12 20 -24 20 -395 0 -368 1 -383
19 -383 18 0 18 8 13 153 -2 83 -1 250 3 371 l7 219 72 -7 c94 -8 132 -19 191
-58 28 -18 54 -32 59 -33 5 0 11 -6 14 -14 3 -9 0 -11 -9 -5 -16 9 3 -18 33
-49 10 -10 16 -22 13 -28 -4 -5 -4 -9 -1 -9 3 0 10 10 17 21 7 13 7 19 1 15
-12 -7 -26 29 -18 42 9 15 -53 90 -100 123 -24 16 -63 37 -86 45 -54 20 -268
32 -268 15z m440 -161 c6 -11 8 -20 6 -20 -3 0 -10 9 -16 20 -6 11 -8 20 -6
20 3 0 10 -9 16 -20z"/>
<path d="M6320 2516 c0 -2 8 -10 18 -17 15 -13 16 -12 3 4 -13 16 -21 21 -21
13z"/>
<path d="M6368 2449 c41 -74 64 -162 68 -259 2 -52 1 -89 -2 -82 -13 27 -34
12 -34 -25 0 -48 -25 -168 -40 -190 -10 -16 -11 -16 -5 2 4 11 9 37 12 58 6
37 5 37 -20 28 -29 -11 -148 -5 -205 11 -8 2 -20 -17 -30 -47 -42 -121 -127
-216 -228 -255 -48 -18 -80 -23 -174 -24 l-115 -1 -1 85 c-1 47 -2 122 -3 167
-1 61 -4 81 -13 78 -25 -10 -173 -12 -190 -3 -17 8 -18 -3 -18 -171 0 -99 4
-182 8 -185 8 -5 123 -15 187 -17 88 -3 135 2 148 16 11 11 31 13 86 8 72 -6
190 6 309 31 56 12 61 12 50 -2 -11 -13 -10 -14 7 -4 44 23 110 89 147 146 45
70 51 63 9 -10 -58 -101 -185 -188 -336 -230 -48 -14 -118 -18 -341 -21 l-281
-5 -6 108 c-4 59 -7 148 -8 198 l0 91 -15 -45 c-9 -31 -14 -96 -14 -209 0
-144 2 -162 15 -151 20 17 19 1 -2 -22 -16 -17 -6 -18 291 -18 354 0 398 6
541 75 148 71 246 188 285 340 25 99 27 261 4 354 -17 67 -59 160 -89 196 -12
15 -12 11 3 -16z"/>
<path d="M4176 2398 c34 -83 54 -178 54 -262 0 -68 0 -69 -19 -48 -26 31 -31
28 -31 -16 0 -59 -36 -187 -71 -253 -39 -73 -142 -172 -225 -216 -107 -57
-200 -77 -359 -77 -153 0 -224 13 -325 62 -102 50 -227 191 -245 277 -4 19 4
7 23 -30 27 -56 115 -166 130 -163 4 1 18 -2 32 -5 14 -3 74 -9 133 -12 60 -2
114 -7 120 -10 7 -3 1 2 -13 12 -95 68 -146 142 -186 268 -12 38 -23 65 -23
60 -1 -7 -42 -10 -116 -8 -103 2 -115 1 -116 -15 -1 -29 -17 28 -25 93 l-8 60
-8 -70 c-14 -111 13 -209 91 -324 70 -103 168 -173 311 -221 92 -32 330 -40
449 -16 271 55 454 219 516 461 21 82 19 233 -4 320 -21 84 -39 121 -80 164
l-30 32 25 -63z"/>
<path d="M7382 2133 l-2 -102 -26 24 -27 25 -238 0 -239 0 1 -102 c1 -57 5
-116 8 -133 7 -28 8 -26 18 25 l11 55 1 -87 c1 -89 7 -118 22 -118 5 0 9 65 9
145 l0 145 224 0 c179 0 226 3 235 14 8 9 11 48 8 112 l-3 99 -2 -102z m-495
-140 c-3 -10 -5 -4 -5 12 0 17 2 24 5 18 2 -7 2 -21 0 -30z"/>
<path d="M8395 2210 c10 -11 20 -20 23 -20 3 0 -3 9 -13 20 -10 11 -20 20 -23
20 -3 0 3 -9 13 -20z"/>
<path d="M2765 1938 c-4 -112 -5 -242 -3 -290 2 -49 0 -88 -4 -88 -5 0 -19 6
-31 14 -19 12 -36 11 -132 -9 -397 -85 -680 -42 -852 130 -59 60 -123 166
-123 205 0 8 11 -10 24 -41 12 -31 32 -69 43 -85 35 -48 107 -111 128 -112 11
-1 58 -8 105 -17 132 -24 168 -28 207 -20 l37 7 -56 22 c-114 46 -190 135
-229 265 -13 45 -25 68 -29 61 -6 -10 -33 -11 -109 -6 -63 4 -108 3 -120 -3
-17 -10 -19 -6 -26 46 -5 39 -10 52 -16 42 -14 -22 -11 -95 7 -162 48 -184
179 -318 381 -388 l98 -34 210 0 c213 1 328 15 491 61 l52 14 3 202 c2 112 2
244 -1 293 -5 82 -7 90 -26 93 -21 3 -22 0 -29 -200z"/>
<path d="M2390 2124 c0 -10 43 -79 52 -82 4 -2 9 -18 9 -35 1 -25 3 -21 10 18
9 48 8 51 -23 78 -31 26 -48 34 -48 21z"/>
<path d="M6552 2105 c0 -16 2 -22 5 -12 2 9 2 23 0 30 -3 6 -5 -1 -5 -18z"/>
<path d="M5611 1960 c-1 -158 13 -205 22 -73 5 60 2 107 -7 148 l-14 60 -1
-135z"/>
<path d="M4651 1984 c1 -55 4 -112 8 -129 l7 -30 6 35 c3 19 6 71 7 116 2 62
-1 83 -13 94 -14 11 -16 2 -15 -86z"/>
<path d="M8479 2016 c9 -11 -1 -14 -56 -19 -38 -4 -96 -7 -130 -7 -42 0 -63
-4 -63 -12 0 -6 -12 -1 -27 13 -33 29 -26 18 57 -86 123 -155 193 -234 200
-230 4 3 14 -3 21 -13 13 -16 12 -16 -6 -2 -20 15 -20 14 -1 -8 21 -25 27 -27
24 -10 -3 12 19 13 198 2 l101 -6 7 32 c8 40 8 257 0 296 l-5 29 -94 -5 c-79
-4 -95 -2 -99 10 -2 8 -4 3 -5 -11 0 -15 -4 -40 -7 -57 l-6 -31 -55 65 c-30
35 -57 64 -60 64 -3 0 0 -6 6 -14z"/>
<path d="M4410 1818 c0 -104 4 -179 10 -183 5 -3 138 -8 296 -11 242 -5 293
-3 328 10 22 8 52 17 66 19 14 2 -88 5 -225 6 l-251 1 4 96 c2 53 1 129 -3
169 l-6 73 -110 -2 -109 -1 0 -177z"/>
<path d="M7779 1995 c-3 -2 -32 -5 -66 -7 l-62 -3 -7 -64 c-6 -59 -1 -258 8
-266 1 -2 47 -5 100 -8 91 -4 97 -3 102 17 8 28 8 232 0 287 -6 41 -8 44 -38
46 -18 2 -35 1 -37 -2z"/>
<path d="M3891 1927 c-52 -155 -147 -260 -271 -298 -39 -12 98 -1 150 11 25 7
72 10 104 8 l59 -5 69 65 c66 63 127 161 143 232 5 23 3 25 -37 29 -24 2 -74
4 -113 5 -38 0 -73 5 -76 10 -4 4 -16 -21 -28 -57z"/>
<path d="M6606 1913 c-8 -94 -8 -197 0 -244 l6 -36 157 -5 c86 -3 181 -1 211
4 30 5 133 11 229 13 95 3 176 7 179 10 3 3 -119 5 -271 5 l-277 0 0 108 c0
59 -3 130 -6 157 l-6 50 -88 -3 c-49 -2 -97 1 -108 7 -18 9 -20 5 -26 -66z"/>
<path d="M2452 1925 c0 -16 2 -22 5 -12 2 9 2 23 0 30 -3 6 -5 -1 -5 -18z"/>
<path d="M4361 1789 c-1 -199 5 -264 25 -248 10 9 14 39 13 118 -1 118 -14
310 -18 271 l-3 -25 -8 25 c-5 15 -8 -42 -9 -141z"/>
<path d="M2503 1913 c-13 -2 -24 -7 -24 -11 -1 -4 -5 -54 -9 -112 l-7 -105 -1
94 c-1 52 -5 92 -8 88 -4 -3 -10 -41 -14 -83 -7 -68 -5 -80 11 -98 11 -11 19
-23 19 -27 0 -6 -72 -23 -165 -38 -47 -8 -48 -9 -15 -12 19 -1 44 -2 55 -1 11
2 79 7 150 12 72 5 146 11 165 12 32 3 36 6 42 43 9 52 10 141 2 196 l-6 44
-87 2 c-47 0 -96 -1 -108 -4z"/>
<path d="M6571 1769 c-1 -31 -4 -98 -7 -150 -6 -91 -6 -93 12 -77 16 16 18 32
15 129 -3 120 -19 199 -20 98z"/>
<path d="M11968 1743 c7 -3 16 -2 19 1 4 3 -2 6 -13 5 -11 0 -14 -3 -6 -6z"/>
<path d="M12008 1733 c7 -3 16 -2 19 1 4 3 -2 6 -13 5 -11 0 -14 -3 -6 -6z"/>
<path d="M12048 1723 c7 -3 16 -2 19 1 4 3 -2 6 -13 5 -11 0 -14 -3 -6 -6z"/>
<path d="M3440 1710 c8 -5 20 -10 25 -10 6 0 3 5 -5 10 -8 5 -19 10 -25 10 -5
0 -3 -5 5 -10z"/>
<path d="M12088 1713 c6 -2 18 -2 25 0 6 3 1 5 -13 5 -14 0 -19 -2 -12 -5z"/>
<path d="M5172 1687 c-17 -18 -22 -36 -22 -80 0 -56 15 -87 22 -45 3 16 5 12
9 -14 l5 -38 -21 20 c-20 19 -36 20 -391 20 l-371 0 -22 -24 -22 -23 93 -5
c51 -3 167 -4 258 -3 91 1 243 3 338 4 l172 1 0 105 c0 114 -7 126 -48 82z"/>
<path d="M7439 1683 c-22 -25 -22 -26 -1 -9 l22 19 0 -64 c0 -36 -5 -70 -10
-75 -8 -8 -6 -15 5 -24 13 -11 15 -2 15 84 0 53 -1 96 -3 96 -2 0 -14 -12 -28
-27z"/>
<path d="M12138 1703 c7 -3 16 -2 19 1 4 3 -2 6 -13 5 -11 0 -14 -3 -6 -6z"/>
<path d="M8447 1632 c-9 -14 42 -74 56 -65 6 4 8 0 4 -10 -7 -18 8 -24 18 -7
3 5 -12 28 -33 51 -23 25 -42 38 -45 31z m43 -43 c15 -28 5 -23 -15 7 -9 15
-12 23 -6 20 6 -4 16 -16 21 -27z"/>
<path d="M7425 1560 c3 -5 8 -10 11 -10 2 0 4 5 4 10 0 6 -5 10 -11 10 -5 0
-7 -4 -4 -10z"/>
<path d="M6577 1532 c-10 -10 -17 -22 -17 -25 0 -4 203 -7 452 -7 l451 0 -23
25 -23 25 -412 0 c-386 0 -413 -1 -428 -18z"/>
<path d="M7171 1175 c-4 -11 -9 -106 -19 -377 -6 -162 -9 -190 -25 -205 -17
-17 -19 -17 -30 2 -6 11 -12 25 -12 30 -1 6 -6 9 -13 7 -7 -1 -12 2 -12 8 0 6
-6 9 -12 8 -7 -2 -12 3 -10 11 2 7 -11 2 -28 -13 -30 -24 -38 -26 -136 -26
-59 0 -103 -4 -100 -9 10 -15 -38 -21 -53 -7 -11 12 -9 16 15 29 16 8 44 18
61 22 20 4 41 19 54 37 25 35 36 107 20 134 -9 17 -10 16 -11 -9 0 -35 -44
-105 -92 -146 -37 -32 -37 -32 -65 -14 -15 10 -24 12 -20 6 5 -7 4 -13 -2 -13
-17 0 -13 -14 9 -38 20 -21 16 -27 -15 -23 -5 1 1 -8 15 -20 l25 -22 -25 8
c-31 10 -65 10 -110 1 l-35 -7 30 14 30 14 -36 7 c-21 3 -42 13 -49 21 -10 12
-38 15 -124 15 -116 0 -133 5 -154 45 -6 11 -12 14 -12 8 0 -7 -5 -13 -11 -13
-6 0 -26 -7 -45 -16 -33 -16 -33 -17 -19 -44 8 -16 25 -36 37 -44 26 -19 19
-21 -16 -4 -14 6 -35 30 -46 53 -18 36 -20 63 -21 216 -1 96 -5 206 -9 244 -5
44 -7 -29 -6 -195 1 -289 4 -303 59 -344 26 -19 42 -21 210 -21 120 0 197 4
227 13 38 11 54 11 105 -2 69 -19 318 -22 377 -6 44 13 95 68 103 112 6 35 2
570 -4 553z m-724 -577 c-33 -7 -55 -7 -70 0 -18 9 -8 11 48 10 l70 0 -48 -10z
m513 -2 c-17 -17 -69 -24 -88 -13 -26 17 -10 27 45 27 50 0 55 -2 43 -14z
m110 -46 c-8 -5 -19 -10 -25 -10 -5 0 -3 5 5 10 8 5 20 10 25 10 6 0 3 -5 -5
-10z m-567 -7 c-18 -2 -48 -2 -65 0 -18 2 -4 4 32 4 36 0 50 -2 33 -4z m244 1
c-3 -3 -12 -4 -19 -1 -8 3 -5 6 6 6 11 1 17 -2 13 -5z m131 -1 c-21 -2 -57 -2
-80 0 -24 2 -7 4 37 4 44 0 63 -2 43 -4z"/>
<path d="M7280 1160 c0 -19 3 -21 12 -12 9 9 9 15 0 24 -9 9 -12 7 -12 -12z"/>
<path d="M9870 941 c0 -131 -3 -248 -6 -258 -6 -15 -5 -16 7 -5 11 10 14 61
14 253 0 133 -3 243 -7 245 -5 3 -8 -103 -8 -235z"/>
<path d="M10050 1175 c-9 -15 -6 -492 3 -501 4 -4 8 -5 10 -3 1 2 0 119 -3
259 -3 140 -7 251 -10 245z"/>
<path d="M10200 942 c0 -150 -4 -252 -11 -265 l-10 -22 19 22 c17 19 19 41 21
250 1 140 -2 234 -9 243 -7 10 -10 -61 -10 -228z"/>
<path d="M6260 926 c0 -183 3 -246 13 -254 9 -8 11 41 9 244 -2 155 -6 254
-12 254 -6 0 -10 -93 -10 -244z"/>
<path d="M7449 945 c-2 -126 -4 -269 -4 -318 0 -65 -3 -87 -13 -87 -7 0 -10 5
-7 11 4 5 4 37 0 71 -4 33 -10 56 -14 50 -4 -7 -19 -8 -44 -2 -45 10 -45 9
-49 -74 -2 -33 -7 -61 -13 -63 -7 -2 -9 78 -7 229 1 128 0 229 -3 226 -3 -3
-8 -112 -11 -242 l-5 -235 23 -6 c13 -3 55 -5 93 -3 l70 3 3 303 c1 167 -2
317 -7 335 -6 23 -10 -36 -12 -198z"/>
<path d="M8761 1170 c-1 -3 -4 -109 -7 -236 -4 -163 -2 -238 5 -253 13 -24 33
-29 25 -6 -4 8 -9 124 -13 257 -4 134 -9 241 -10 238z"/>
<path d="M10382 1170 c-1 -3 -5 -115 -8 -250 -3 -135 -10 -261 -15 -280 -11
-46 -55 -88 -99 -95 l-35 -6 30 14 c20 9 25 16 17 21 -10 6 -10 11 0 24 10 12
10 14 1 8 -16 -9 -17 16 -2 31 8 8 8 15 -1 25 -11 11 -18 9 -41 -14 -17 -17
-38 -28 -55 -28 -27 0 -27 -1 -8 -14 18 -14 18 -15 1 -22 -10 -3 -38 -4 -62
-1 -58 8 -80 1 -63 -21 11 -13 10 -14 -9 -4 -12 7 -25 17 -28 22 -4 6 -19 0
-36 -13 -25 -18 -45 -22 -107 -23 -42 -1 -58 1 -34 3 37 3 42 6 32 19 -7 8
-21 14 -31 14 -22 0 -15 26 9 34 17 5 -143 0 -168 -6 -8 -2 -28 -15 -45 -30
-29 -27 -81 -46 -92 -34 -4 3 1 6 10 6 9 0 17 5 17 10 0 6 -5 10 -10 10 -6 0
-16 11 -22 25 -11 24 -15 25 -87 24 -43 -1 -66 -4 -53 -8 l24 -6 -22 -25 -22
-25 24 -6 c16 -5 9 -7 -23 -8 -32 -1 -54 5 -69 17 -22 18 -24 18 -59 0 -19
-10 -51 -17 -71 -16 l-35 1 35 4 c57 7 55 20 -5 26 -31 3 -62 10 -68 15 -15
12 -98 13 -91 1 3 -5 -3 -8 -13 -7 -10 2 -49 -4 -88 -12 l-70 -14 40 -7 c26
-4 4 -7 -65 -7 -122 -2 -146 7 -177 63 -20 36 -22 58 -26 243 -2 111 -7 205
-9 208 -9 9 -21 -304 -15 -379 7 -75 27 -118 70 -151 27 -20 42 -21 281 -24
204 -3 260 0 296 12 33 11 48 12 64 3 12 -6 75 -13 141 -15 106 -3 125 -1 159
17 36 19 40 19 64 3 40 -26 233 -29 286 -4 38 17 41 17 95 -1 43 -15 75 -18
141 -15 107 6 161 30 190 88 19 38 20 55 17 312 -1 150 -3 271 -5 268z"/>
<path d="M5328 1144 c-5 -4 -8 -27 -8 -51 l0 -43 -65 0 -65 0 0 45 c0 33 -4
45 -15 45 -10 0 -15 -10 -15 -27 0 -62 -7 -68 -61 -65 -27 2 -57 1 -67 -3 -30
-11 15 -35 68 -35 50 0 70 12 71 45 0 18 1 17 10 -5 6 -13 15 -28 22 -32 21
-14 114 -9 126 6 13 15 11 133 -1 120z"/>
<path d="M7978 1117 c-5 -10 -8 -34 -8 -53 l0 -34 -66 0 c-48 0 -65 -3 -62
-12 3 -8 28 -14 65 -16 74 -4 85 7 81 80 -2 35 -5 47 -10 35z"/>
<path d="M8000 1077 c0 -29 5 -58 12 -65 18 -18 138 -16 138 2 0 17 -76 32
-109 21 -19 -6 -21 -3 -21 44 0 28 -4 51 -10 51 -5 0 -10 -24 -10 -53z"/>
<path d="M8143 1090 c0 -25 2 -35 4 -22 2 12 2 32 0 45 -2 12 -4 2 -4 -23z"/>
<path d="M9567 1113 c-4 -3 -4 -23 -1 -45 l7 -38 -66 0 c-36 0 -68 -4 -72 -9
-8 -14 28 -31 62 -31 53 0 73 11 81 44 l8 31 7 -31 c6 -29 9 -31 62 -37 82 -8
85 -5 83 67 -1 56 -2 57 -5 14 l-4 -48 -60 0 -59 0 0 45 c0 37 -3 45 -18 45
-10 0 -22 -3 -25 -7z"/>
<path d="M5182 951 c-11 -7 -11 -9 2 -14 10 -4 16 -1 16 8 0 17 -1 17 -18 6z"/>
<path d="M5350 816 c0 -113 3 -136 17 -147 15 -13 16 -11 10 11 -4 14 -7 80
-7 148 0 74 -4 122 -10 122 -6 0 -10 -51 -10 -134z"/>
<path d="M6992 815 c-1 -80 2 -134 7 -125 5 8 5 71 1 140 l-7 125 -1 -140z"/>
<path d="M8328 820 c-4 -288 -3 -329 7 -319 14 14 19 409 6 422 -8 8 -11 -23
-13 -103z"/>
<path d="M9522 849 c-1 -47 -5 -108 -8 -135 -5 -37 -4 -46 5 -38 8 7 11 50 8
135 -2 99 -3 107 -5 38z"/>
<path d="M9686 913 c-8 -8 -8 -206 0 -227 16 -41 24 -6 24 103 0 109 -6 142
-24 124z"/>
<path d="M8491 895 c7 -70 -2 -365 -11 -360 -5 3 -10 17 -10 29 0 27 -16 42
-45 43 -11 1 -26 3 -33 5 -10 2 -15 -12 -18 -50 -5 -71 -26 -109 -67 -120 -29
-7 -32 -12 -33 -45 0 -21 -6 -43 -12 -49 -9 -9 -12 2 -12 48 0 42 -3 55 -10
44 -5 -8 -10 -36 -10 -62 0 -57 13 -63 106 -53 77 8 121 35 149 90 18 36 20
64 23 259 2 150 0 222 -8 230 -8 8 -10 5 -9 -9z"/>
<path d="M8896 843 c13 -73 21 -84 51 -76 16 5 59 8 97 8 62 0 71 -2 88 -26
11 -14 20 -39 20 -56 1 -48 28 -30 28 19 0 50 -13 74 -52 94 -38 20 -136 14
-172 -10 -23 -15 -24 -14 -32 22 -4 20 -6 43 -5 50 1 6 -5 12 -14 12 -13 0
-15 -7 -9 -37z"/>
<path d="M4594 835 c-3 -8 -4 -37 -2 -64 3 -54 -16 -62 -27 -10 l-7 29 -896
-4 c-493 -2 -1104 -5 -1357 -6 -253 -1 -449 -5 -435 -9 14 -5 138 -11 275 -15
138 -3 417 -11 620 -17 587 -16 1838 -38 1847 -33 12 8 10 144 -2 144 -6 0
-13 -7 -16 -15z"/>
<path d="M10730 782 c0 -39 3 -73 8 -75 4 -3 198 -1 432 4 234 4 659 13 945
18 751 15 1335 32 1375 41 19 5 -154 9 -385 10 -231 1 -849 4 -1372 6 l-953 4
0 -24 c0 -16 -8 -30 -22 -37 -19 -9 -21 -9 -10 2 17 18 15 94 -3 109 -13 11
-15 3 -15 -58z"/>
<path d="M5075 808 c-23 -20 -25 -28 -20 -64 6 -32 14 -45 39 -59 31 -18 31
-18 14 2 -21 23 -24 73 -6 91 7 7 27 12 45 12 33 0 33 0 33 -48 0 -26 -5 -53
-12 -60 -8 -8 -8 -12 -1 -12 21 0 31 26 35 93 l3 67 -52 0 c-39 0 -58 -5 -78
-22z"/>
<path d="M6006 788 c8 -63 -2 -126 -26 -166 -21 -35 -23 -34 -80 19 -15 14
-19 14 -46 -8 -22 -17 -39 -23 -71 -21 -23 2 -41 5 -40 8 0 3 -9 21 -21 40
-12 19 -22 30 -22 24 0 -5 6 -19 14 -29 11 -15 12 -25 4 -40 -19 -35 -34 -45
-47 -32 -8 8 -14 7 -23 -6 -16 -20 -69 -41 -65 -26 1 6 -14 16 -33 22 -19 7
-35 19 -35 27 0 12 -19 17 -80 22 -99 8 -105 10 -100 19 3 3 -3 13 -12 20 -14
12 -16 12 -8 -1 8 -13 6 -13 -8 -2 -9 8 -21 11 -27 7 -16 -10 -12 -45 6 -45 9
0 12 5 8 12 -4 7 8 1 27 -13 l34 -24 -33 -3 c-18 -2 -30 -8 -26 -13 3 -5 10
-7 15 -4 5 3 6 -1 3 -9 -4 -11 3 -16 28 -19 27 -3 25 -4 -13 -5 -49 -2 -99 25
-99 54 0 19 -16 18 -24 -1 -7 -19 -37 -31 -96 -38 l-45 -6 40 13 c22 8 39 19
37 26 -1 6 2 9 7 6 5 -4 12 -3 15 2 8 13 -32 42 -57 41 -21 -1 -21 -1 3 -10
22 -8 20 -8 -8 -4 -19 3 -54 0 -79 -7 l-46 -11 22 -19 c13 -10 19 -18 13 -18
-6 0 -24 13 -40 30 -27 26 -51 80 -65 145 -3 14 -5 11 -7 -10 -7 -98 39 -177
119 -204 45 -15 128 -13 166 3 27 11 33 10 58 -8 26 -19 42 -21 200 -21 140 0
177 3 201 16 28 15 32 15 70 -2 27 -12 64 -19 111 -19 89 0 137 25 180 94 26
43 30 59 29 115 0 43 -6 77 -17 96 l-17 30 6 -47z m-90 -233 c-11 -8 -27 -15
-35 -15 -9 1 -2 7 14 15 39 18 44 18 21 0z m-78 -22 c-10 -2 -28 -2 -40 0 -13
2 -5 4 17 4 22 1 32 -1 23 -4z"/>
<path d="M6406 813 c-6 -14 -5 -15 5 -6 7 7 10 15 7 18 -3 3 -9 -2 -12 -12z"/>
<path d="M6568 818 c-16 -5 -28 -13 -28 -18 0 -13 42 -20 61 -9 26 14 62 11
88 -7 17 -13 25 -14 34 -4 9 9 6 16 -12 31 -26 21 -96 25 -143 7z"/>
<path d="M7945 805 c-31 -30 -34 -92 -6 -126 l18 -23 -5 52 c-5 61 7 82 49 82
22 0 32 -6 39 -26 12 -30 13 -76 3 -90 -5 -5 0 -1 10 9 15 17 22 56 18 97 -3
24 -41 50 -73 50 -17 0 -39 -10 -53 -25z"/>
<path d="M5763 808 c-24 -12 -38 -41 -35 -73 5 -44 12 -63 26 -68 11 -5 13 0
6 22 -11 38 12 91 39 91 31 0 55 -43 48 -88 l-5 -37 17 40 c21 46 13 86 -22
110 -25 17 -43 18 -74 3z"/>
<path d="M8211 734 c0 -99 -54 -178 -131 -189 l-35 -5 35 11 c22 7 29 13 20
17 -8 2 -25 13 -36 24 l-21 19 28 29 c16 16 29 34 29 42 -1 7 -7 1 -16 -14
-28 -53 -100 -65 -150 -26 -18 15 -26 17 -22 8 4 -11 -2 -15 -20 -17 -22 -1
-41 -17 -42 -35 0 -18 59 -43 124 -54 53 -9 62 -12 33 -13 -105 -3 -181 47
-214 139 -13 36 -19 45 -24 33 -18 -52 45 -152 115 -184 46 -21 158 -26 215
-9 86 24 150 137 135 236 -9 62 -23 55 -23 -12z m-261 -140 c0 -2 -7 -4 -15
-4 -8 0 -15 4 -15 10 0 5 7 7 15 4 8 -4 15 -8 15 -10z"/>
<path d="M9317 753 c6 -61 12 -80 26 -86 11 -4 12 6 5 51 -5 30 -11 59 -14 64
-12 19 -20 5 -17 -29z"/>
<path d="M6402 771 c-13 -8 7 -39 51 -84 10 -10 15 -22 12 -27 -4 -6 9 -10 30
-10 l37 0 -52 60 c-61 70 -62 71 -78 61z"/>
<path d="M5582 720 c0 -14 2 -19 5 -12 2 6 2 18 0 25 -3 6 -5 1 -5 -13z"/>
<path d="M6675 720 c-10 -12 -25 -18 -32 -16 -7 3 -13 1 -13 -4 0 -18 26 -10
50 15 13 14 21 25 18 25 -3 0 -13 -9 -23 -20z"/>
<path d="M5191 657 c-6 -8 -7 -17 -3 -22 4 -4 -3 -4 -16 0 -23 7 -23 6 -5 -14
18 -21 39 -30 28 -11 -6 10 1 12 42 13 14 0 19 5 16 13 -3 8 -9 11 -14 8 -5
-3 -12 2 -15 10 -7 20 -18 20 -33 3z"/>
<path d="M6650 660 c-9 -6 -10 -10 -3 -10 6 0 15 5 18 10 8 12 4 12 -15 0z"/>
<path d="M7117 655 c-4 -8 -2 -17 3 -20 6 -4 10 3 10 14 0 25 -6 27 -13 6z"/>
<path d="M8818 613 c12 -2 32 -2 45 0 12 2 2 4 -23 4 -25 0 -35 -2 -22 -4z"/>
<path d="M8948 613 c34 -2 88 -2 120 0 31 2 3 3 -63 3 -66 0 -92 -1 -57 -3z"/>
<path d="M8674 573 c21 -18 38 -23 67 -21 21 1 39 5 39 8 0 9 -91 39 -114 37
-17 0 -16 -3 8 -24z"/>
<path d="M9016 409 c-5 -31 -4 -54 4 -68 10 -20 18 -22 83 -19 l72 3 3 63 c2
36 -1 62 -7 62 -6 0 -7 -15 -4 -34 7 -47 -13 -66 -70 -66 -39 0 -46 3 -55 28
-6 15 -13 38 -15 52 -2 18 -5 13 -11 -21z"/>
<path d="M9073 433 c-7 -2 -13 -20 -13 -39 0 -33 1 -34 39 -34 40 0 51 11 51
50 0 26 -41 38 -77 23z"/>
</g>
</svg>
